<?xml version="1.0" encoding="utf-8" standalone="no"?>
<!DOCTYPE svg PUBLIC "-//W3C//DTD SVG 1.1//EN"
  "http://www.w3.org/Graphics/SVG/1.1/DTD/svg11.dtd">
<svg xmlns:xlink="http://www.w3.org/1999/xlink" width="720pt" height="432pt" viewBox="0 0 720 432" xmlns="http://www.w3.org/2000/svg" version="1.1">
 <metadata>
  <rdf:RDF xmlns:dc="http://purl.org/dc/elements/1.1/" xmlns:cc="http://creativecommons.org/ns#" xmlns:rdf="http://www.w3.org/1999/02/22-rdf-syntax-ns#">
   <cc:Work>
    <dc:type rdf:resource="http://purl.org/dc/dcmitype/StillImage"/>
    <dc:date>2026-04-11T13:38:34.003403</dc:date>
    <dc:format>image/svg+xml</dc:format>
    <dc:creator>
     <cc:Agent>
      <dc:title>Matplotlib v3.6.3, https://matplotlib.org/</dc:title>
     </cc:Agent>
    </dc:creator>
   </cc:Work>
  </rdf:RDF>
 </metadata>
 <defs>
  <style type="text/css">*{stroke-linejoin: round; stroke-linecap: butt}</style>
 </defs>
 <g id="figure_1">
  <g id="patch_1">
   <path d="M 0 432 
L 720 432 
L 720 0 
L 0 0 
z
" style="fill: #ffffff"/>
  </g>
  <g id="axes_1">
   <g id="patch_2">
    <path d="M 54.2 390.04 
L 709.2 390.04 
L 709.2 25.44 
L 54.2 25.44 
z
" style="fill: #ffffff"/>
   </g>
   <g id="matplotlib.axis_1">
    <g id="xtick_1">
     <g id="line2d_1">
      <path d="M 77.958035 390.04 
L 77.958035 25.44 
" clip-path="url(#pf3e622fda9)" style="fill: none; stroke: #b0b0b0; stroke-width: 0.8; stroke-linecap: square"/>
     </g>
     <g id="line2d_2">
      <defs>
       <path id="mf79ed45df1" d="M 0 0 
L 0 3.5 
" style="stroke: #000000; stroke-width: 0.8"/>
      </defs>
      <g>
       <use xlink:href="#mf79ed45df1" x="77.958035" y="390.04" style="stroke: #000000; stroke-width: 0.8"/>
      </g>
     </g>
     <g id="text_1">
      <!-- 0.0 -->
      <g transform="translate(70.006472 404.638438) scale(0.1 -0.1)">
       <defs>
        <path id="DejaVuSans-30" d="M 2034 4250 
Q 1547 4250 1301 3770 
Q 1056 3291 1056 2328 
Q 1056 1369 1301 889 
Q 1547 409 2034 409 
Q 2525 409 2770 889 
Q 3016 1369 3016 2328 
Q 3016 3291 2770 3770 
Q 2525 4250 2034 4250 
z
M 2034 4750 
Q 2819 4750 3233 4129 
Q 3647 3509 3647 2328 
Q 3647 1150 3233 529 
Q 2819 -91 2034 -91 
Q 1250 -91 836 529 
Q 422 1150 422 2328 
Q 422 3509 836 4129 
Q 1250 4750 2034 4750 
z
" transform="scale(0.015625)"/>
        <path id="DejaVuSans-2e" d="M 684 794 
L 1344 794 
L 1344 0 
L 684 0 
L 684 794 
z
" transform="scale(0.015625)"/>
       </defs>
       <use xlink:href="#DejaVuSans-30"/>
       <use xlink:href="#DejaVuSans-2e" x="63.623047"/>
       <use xlink:href="#DejaVuSans-30" x="95.410156"/>
      </g>
     </g>
    </g>
    <g id="xtick_2">
     <g id="line2d_3">
      <path d="M 198.251882 390.04 
L 198.251882 25.44 
" clip-path="url(#pf3e622fda9)" style="fill: none; stroke: #b0b0b0; stroke-width: 0.8; stroke-linecap: square"/>
     </g>
     <g id="line2d_4">
      <g>
       <use xlink:href="#mf79ed45df1" x="198.251882" y="390.04" style="stroke: #000000; stroke-width: 0.8"/>
      </g>
     </g>
     <g id="text_2">
      <!-- 0.2 -->
      <g transform="translate(190.30032 404.638438) scale(0.1 -0.1)">
       <defs>
        <path id="DejaVuSans-32" d="M 1228 531 
L 3431 531 
L 3431 0 
L 469 0 
L 469 531 
Q 828 903 1448 1529 
Q 2069 2156 2228 2338 
Q 2531 2678 2651 2914 
Q 2772 3150 2772 3378 
Q 2772 3750 2511 3984 
Q 2250 4219 1831 4219 
Q 1534 4219 1204 4116 
Q 875 4013 500 3803 
L 500 4441 
Q 881 4594 1212 4672 
Q 1544 4750 1819 4750 
Q 2544 4750 2975 4387 
Q 3406 4025 3406 3419 
Q 3406 3131 3298 2873 
Q 3191 2616 2906 2266 
Q 2828 2175 2409 1742 
Q 1991 1309 1228 531 
z
" transform="scale(0.015625)"/>
       </defs>
       <use xlink:href="#DejaVuSans-30"/>
       <use xlink:href="#DejaVuSans-2e" x="63.623047"/>
       <use xlink:href="#DejaVuSans-32" x="95.410156"/>
      </g>
     </g>
    </g>
    <g id="xtick_3">
     <g id="line2d_5">
      <path d="M 318.54573 390.04 
L 318.54573 25.44 
" clip-path="url(#pf3e622fda9)" style="fill: none; stroke: #b0b0b0; stroke-width: 0.8; stroke-linecap: square"/>
     </g>
     <g id="line2d_6">
      <g>
       <use xlink:href="#mf79ed45df1" x="318.54573" y="390.04" style="stroke: #000000; stroke-width: 0.8"/>
      </g>
     </g>
     <g id="text_3">
      <!-- 0.4 -->
      <g transform="translate(310.594168 404.638438) scale(0.1 -0.1)">
       <defs>
        <path id="DejaVuSans-34" d="M 2419 4116 
L 825 1625 
L 2419 1625 
L 2419 4116 
z
M 2253 4666 
L 3047 4666 
L 3047 1625 
L 3713 1625 
L 3713 1100 
L 3047 1100 
L 3047 0 
L 2419 0 
L 2419 1100 
L 313 1100 
L 313 1709 
L 2253 4666 
z
" transform="scale(0.015625)"/>
       </defs>
       <use xlink:href="#DejaVuSans-30"/>
       <use xlink:href="#DejaVuSans-2e" x="63.623047"/>
       <use xlink:href="#DejaVuSans-34" x="95.410156"/>
      </g>
     </g>
    </g>
    <g id="xtick_4">
     <g id="line2d_7">
      <path d="M 438.839578 390.04 
L 438.839578 25.44 
" clip-path="url(#pf3e622fda9)" style="fill: none; stroke: #b0b0b0; stroke-width: 0.8; stroke-linecap: square"/>
     </g>
     <g id="line2d_8">
      <g>
       <use xlink:href="#mf79ed45df1" x="438.839578" y="390.04" style="stroke: #000000; stroke-width: 0.8"/>
      </g>
     </g>
     <g id="text_4">
      <!-- 0.6 -->
      <g transform="translate(430.888015 404.638438) scale(0.1 -0.1)">
       <defs>
        <path id="DejaVuSans-36" d="M 2113 2584 
Q 1688 2584 1439 2293 
Q 1191 2003 1191 1497 
Q 1191 994 1439 701 
Q 1688 409 2113 409 
Q 2538 409 2786 701 
Q 3034 994 3034 1497 
Q 3034 2003 2786 2293 
Q 2538 2584 2113 2584 
z
M 3366 4563 
L 3366 3988 
Q 3128 4100 2886 4159 
Q 2644 4219 2406 4219 
Q 1781 4219 1451 3797 
Q 1122 3375 1075 2522 
Q 1259 2794 1537 2939 
Q 1816 3084 2150 3084 
Q 2853 3084 3261 2657 
Q 3669 2231 3669 1497 
Q 3669 778 3244 343 
Q 2819 -91 2113 -91 
Q 1303 -91 875 529 
Q 447 1150 447 2328 
Q 447 3434 972 4092 
Q 1497 4750 2381 4750 
Q 2619 4750 2861 4703 
Q 3103 4656 3366 4563 
z
" transform="scale(0.015625)"/>
       </defs>
       <use xlink:href="#DejaVuSans-30"/>
       <use xlink:href="#DejaVuSans-2e" x="63.623047"/>
       <use xlink:href="#DejaVuSans-36" x="95.410156"/>
      </g>
     </g>
    </g>
    <g id="xtick_5">
     <g id="line2d_9">
      <path d="M 559.133425 390.04 
L 559.133425 25.44 
" clip-path="url(#pf3e622fda9)" style="fill: none; stroke: #b0b0b0; stroke-width: 0.8; stroke-linecap: square"/>
     </g>
     <g id="line2d_10">
      <g>
       <use xlink:href="#mf79ed45df1" x="559.133425" y="390.04" style="stroke: #000000; stroke-width: 0.8"/>
      </g>
     </g>
     <g id="text_5">
      <!-- 0.8 -->
      <g transform="translate(551.181863 404.638438) scale(0.1 -0.1)">
       <defs>
        <path id="DejaVuSans-38" d="M 2034 2216 
Q 1584 2216 1326 1975 
Q 1069 1734 1069 1313 
Q 1069 891 1326 650 
Q 1584 409 2034 409 
Q 2484 409 2743 651 
Q 3003 894 3003 1313 
Q 3003 1734 2745 1975 
Q 2488 2216 2034 2216 
z
M 1403 2484 
Q 997 2584 770 2862 
Q 544 3141 544 3541 
Q 544 4100 942 4425 
Q 1341 4750 2034 4750 
Q 2731 4750 3128 4425 
Q 3525 4100 3525 3541 
Q 3525 3141 3298 2862 
Q 3072 2584 2669 2484 
Q 3125 2378 3379 2068 
Q 3634 1759 3634 1313 
Q 3634 634 3220 271 
Q 2806 -91 2034 -91 
Q 1263 -91 848 271 
Q 434 634 434 1313 
Q 434 1759 690 2068 
Q 947 2378 1403 2484 
z
M 1172 3481 
Q 1172 3119 1398 2916 
Q 1625 2713 2034 2713 
Q 2441 2713 2670 2916 
Q 2900 3119 2900 3481 
Q 2900 3844 2670 4047 
Q 2441 4250 2034 4250 
Q 1625 4250 1398 4047 
Q 1172 3844 1172 3481 
z
" transform="scale(0.015625)"/>
       </defs>
       <use xlink:href="#DejaVuSans-30"/>
       <use xlink:href="#DejaVuSans-2e" x="63.623047"/>
       <use xlink:href="#DejaVuSans-38" x="95.410156"/>
      </g>
     </g>
    </g>
    <g id="xtick_6">
     <g id="line2d_11">
      <path d="M 679.427273 390.04 
L 679.427273 25.44 
" clip-path="url(#pf3e622fda9)" style="fill: none; stroke: #b0b0b0; stroke-width: 0.8; stroke-linecap: square"/>
     </g>
     <g id="line2d_12">
      <g>
       <use xlink:href="#mf79ed45df1" x="679.427273" y="390.04" style="stroke: #000000; stroke-width: 0.8"/>
      </g>
     </g>
     <g id="text_6">
      <!-- 1.0 -->
      <g transform="translate(671.47571 404.638438) scale(0.1 -0.1)">
       <defs>
        <path id="DejaVuSans-31" d="M 794 531 
L 1825 531 
L 1825 4091 
L 703 3866 
L 703 4441 
L 1819 4666 
L 2450 4666 
L 2450 531 
L 3481 531 
L 3481 0 
L 794 0 
L 794 531 
z
" transform="scale(0.015625)"/>
       </defs>
       <use xlink:href="#DejaVuSans-31"/>
       <use xlink:href="#DejaVuSans-2e" x="63.623047"/>
       <use xlink:href="#DejaVuSans-30" x="95.410156"/>
      </g>
     </g>
    </g>
    <g id="text_7">
     <!-- number of operations -->
     <g transform="translate(327.576562 418.316562) scale(0.1 -0.1)">
      <defs>
       <path id="DejaVuSans-6e" d="M 3513 2113 
L 3513 0 
L 2938 0 
L 2938 2094 
Q 2938 2591 2744 2837 
Q 2550 3084 2163 3084 
Q 1697 3084 1428 2787 
Q 1159 2491 1159 1978 
L 1159 0 
L 581 0 
L 581 3500 
L 1159 3500 
L 1159 2956 
Q 1366 3272 1645 3428 
Q 1925 3584 2291 3584 
Q 2894 3584 3203 3211 
Q 3513 2838 3513 2113 
z
" transform="scale(0.015625)"/>
       <path id="DejaVuSans-75" d="M 544 1381 
L 544 3500 
L 1119 3500 
L 1119 1403 
Q 1119 906 1312 657 
Q 1506 409 1894 409 
Q 2359 409 2629 706 
Q 2900 1003 2900 1516 
L 2900 3500 
L 3475 3500 
L 3475 0 
L 2900 0 
L 2900 538 
Q 2691 219 2414 64 
Q 2138 -91 1772 -91 
Q 1169 -91 856 284 
Q 544 659 544 1381 
z
M 1991 3584 
L 1991 3584 
z
" transform="scale(0.015625)"/>
       <path id="DejaVuSans-6d" d="M 3328 2828 
Q 3544 3216 3844 3400 
Q 4144 3584 4550 3584 
Q 5097 3584 5394 3201 
Q 5691 2819 5691 2113 
L 5691 0 
L 5113 0 
L 5113 2094 
Q 5113 2597 4934 2840 
Q 4756 3084 4391 3084 
Q 3944 3084 3684 2787 
Q 3425 2491 3425 1978 
L 3425 0 
L 2847 0 
L 2847 2094 
Q 2847 2600 2669 2842 
Q 2491 3084 2119 3084 
Q 1678 3084 1418 2786 
Q 1159 2488 1159 1978 
L 1159 0 
L 581 0 
L 581 3500 
L 1159 3500 
L 1159 2956 
Q 1356 3278 1631 3431 
Q 1906 3584 2284 3584 
Q 2666 3584 2933 3390 
Q 3200 3197 3328 2828 
z
" transform="scale(0.015625)"/>
       <path id="DejaVuSans-62" d="M 3116 1747 
Q 3116 2381 2855 2742 
Q 2594 3103 2138 3103 
Q 1681 3103 1420 2742 
Q 1159 2381 1159 1747 
Q 1159 1113 1420 752 
Q 1681 391 2138 391 
Q 2594 391 2855 752 
Q 3116 1113 3116 1747 
z
M 1159 2969 
Q 1341 3281 1617 3432 
Q 1894 3584 2278 3584 
Q 2916 3584 3314 3078 
Q 3713 2572 3713 1747 
Q 3713 922 3314 415 
Q 2916 -91 2278 -91 
Q 1894 -91 1617 61 
Q 1341 213 1159 525 
L 1159 0 
L 581 0 
L 581 4863 
L 1159 4863 
L 1159 2969 
z
" transform="scale(0.015625)"/>
       <path id="DejaVuSans-65" d="M 3597 1894 
L 3597 1613 
L 953 1613 
Q 991 1019 1311 708 
Q 1631 397 2203 397 
Q 2534 397 2845 478 
Q 3156 559 3463 722 
L 3463 178 
Q 3153 47 2828 -22 
Q 2503 -91 2169 -91 
Q 1331 -91 842 396 
Q 353 884 353 1716 
Q 353 2575 817 3079 
Q 1281 3584 2069 3584 
Q 2775 3584 3186 3129 
Q 3597 2675 3597 1894 
z
M 3022 2063 
Q 3016 2534 2758 2815 
Q 2500 3097 2075 3097 
Q 1594 3097 1305 2825 
Q 1016 2553 972 2059 
L 3022 2063 
z
" transform="scale(0.015625)"/>
       <path id="DejaVuSans-72" d="M 2631 2963 
Q 2534 3019 2420 3045 
Q 2306 3072 2169 3072 
Q 1681 3072 1420 2755 
Q 1159 2438 1159 1844 
L 1159 0 
L 581 0 
L 581 3500 
L 1159 3500 
L 1159 2956 
Q 1341 3275 1631 3429 
Q 1922 3584 2338 3584 
Q 2397 3584 2469 3576 
Q 2541 3569 2628 3553 
L 2631 2963 
z
" transform="scale(0.015625)"/>
       <path id="DejaVuSans-20" transform="scale(0.015625)"/>
       <path id="DejaVuSans-6f" d="M 1959 3097 
Q 1497 3097 1228 2736 
Q 959 2375 959 1747 
Q 959 1119 1226 758 
Q 1494 397 1959 397 
Q 2419 397 2687 759 
Q 2956 1122 2956 1747 
Q 2956 2369 2687 2733 
Q 2419 3097 1959 3097 
z
M 1959 3584 
Q 2709 3584 3137 3096 
Q 3566 2609 3566 1747 
Q 3566 888 3137 398 
Q 2709 -91 1959 -91 
Q 1206 -91 779 398 
Q 353 888 353 1747 
Q 353 2609 779 3096 
Q 1206 3584 1959 3584 
z
" transform="scale(0.015625)"/>
       <path id="DejaVuSans-66" d="M 2375 4863 
L 2375 4384 
L 1825 4384 
Q 1516 4384 1395 4259 
Q 1275 4134 1275 3809 
L 1275 3500 
L 2222 3500 
L 2222 3053 
L 1275 3053 
L 1275 0 
L 697 0 
L 697 3053 
L 147 3053 
L 147 3500 
L 697 3500 
L 697 3744 
Q 697 4328 969 4595 
Q 1241 4863 1831 4863 
L 2375 4863 
z
" transform="scale(0.015625)"/>
       <path id="DejaVuSans-70" d="M 1159 525 
L 1159 -1331 
L 581 -1331 
L 581 3500 
L 1159 3500 
L 1159 2969 
Q 1341 3281 1617 3432 
Q 1894 3584 2278 3584 
Q 2916 3584 3314 3078 
Q 3713 2572 3713 1747 
Q 3713 922 3314 415 
Q 2916 -91 2278 -91 
Q 1894 -91 1617 61 
Q 1341 213 1159 525 
z
M 3116 1747 
Q 3116 2381 2855 2742 
Q 2594 3103 2138 3103 
Q 1681 3103 1420 2742 
Q 1159 2381 1159 1747 
Q 1159 1113 1420 752 
Q 1681 391 2138 391 
Q 2594 391 2855 752 
Q 3116 1113 3116 1747 
z
" transform="scale(0.015625)"/>
       <path id="DejaVuSans-61" d="M 2194 1759 
Q 1497 1759 1228 1600 
Q 959 1441 959 1056 
Q 959 750 1161 570 
Q 1363 391 1709 391 
Q 2188 391 2477 730 
Q 2766 1069 2766 1631 
L 2766 1759 
L 2194 1759 
z
M 3341 1997 
L 3341 0 
L 2766 0 
L 2766 531 
Q 2569 213 2275 61 
Q 1981 -91 1556 -91 
Q 1019 -91 701 211 
Q 384 513 384 1019 
Q 384 1609 779 1909 
Q 1175 2209 1959 2209 
L 2766 2209 
L 2766 2266 
Q 2766 2663 2505 2880 
Q 2244 3097 1772 3097 
Q 1472 3097 1187 3025 
Q 903 2953 641 2809 
L 641 3341 
Q 956 3463 1253 3523 
Q 1550 3584 1831 3584 
Q 2591 3584 2966 3190 
Q 3341 2797 3341 1997 
z
" transform="scale(0.015625)"/>
       <path id="DejaVuSans-74" d="M 1172 4494 
L 1172 3500 
L 2356 3500 
L 2356 3053 
L 1172 3053 
L 1172 1153 
Q 1172 725 1289 603 
Q 1406 481 1766 481 
L 2356 481 
L 2356 0 
L 1766 0 
Q 1100 0 847 248 
Q 594 497 594 1153 
L 594 3053 
L 172 3053 
L 172 3500 
L 594 3500 
L 594 4494 
L 1172 4494 
z
" transform="scale(0.015625)"/>
       <path id="DejaVuSans-69" d="M 603 3500 
L 1178 3500 
L 1178 0 
L 603 0 
L 603 3500 
z
M 603 4863 
L 1178 4863 
L 1178 4134 
L 603 4134 
L 603 4863 
z
" transform="scale(0.015625)"/>
       <path id="DejaVuSans-73" d="M 2834 3397 
L 2834 2853 
Q 2591 2978 2328 3040 
Q 2066 3103 1784 3103 
Q 1356 3103 1142 2972 
Q 928 2841 928 2578 
Q 928 2378 1081 2264 
Q 1234 2150 1697 2047 
L 1894 2003 
Q 2506 1872 2764 1633 
Q 3022 1394 3022 966 
Q 3022 478 2636 193 
Q 2250 -91 1575 -91 
Q 1294 -91 989 -36 
Q 684 19 347 128 
L 347 722 
Q 666 556 975 473 
Q 1284 391 1588 391 
Q 1994 391 2212 530 
Q 2431 669 2431 922 
Q 2431 1156 2273 1281 
Q 2116 1406 1581 1522 
L 1381 1569 
Q 847 1681 609 1914 
Q 372 2147 372 2553 
Q 372 3047 722 3315 
Q 1072 3584 1716 3584 
Q 2034 3584 2315 3537 
Q 2597 3491 2834 3397 
z
" transform="scale(0.015625)"/>
      </defs>
      <use xlink:href="#DejaVuSans-6e"/>
      <use xlink:href="#DejaVuSans-75" x="63.378906"/>
      <use xlink:href="#DejaVuSans-6d" x="126.757812"/>
      <use xlink:href="#DejaVuSans-62" x="224.169922"/>
      <use xlink:href="#DejaVuSans-65" x="287.646484"/>
      <use xlink:href="#DejaVuSans-72" x="349.169922"/>
      <use xlink:href="#DejaVuSans-20" x="390.283203"/>
      <use xlink:href="#DejaVuSans-6f" x="422.070312"/>
      <use xlink:href="#DejaVuSans-66" x="483.251953"/>
      <use xlink:href="#DejaVuSans-20" x="518.457031"/>
      <use xlink:href="#DejaVuSans-6f" x="550.244141"/>
      <use xlink:href="#DejaVuSans-70" x="611.425781"/>
      <use xlink:href="#DejaVuSans-65" x="674.902344"/>
      <use xlink:href="#DejaVuSans-72" x="736.425781"/>
      <use xlink:href="#DejaVuSans-61" x="777.539062"/>
      <use xlink:href="#DejaVuSans-74" x="838.818359"/>
      <use xlink:href="#DejaVuSans-69" x="878.027344"/>
      <use xlink:href="#DejaVuSans-6f" x="905.810547"/>
      <use xlink:href="#DejaVuSans-6e" x="966.992188"/>
      <use xlink:href="#DejaVuSans-73" x="1030.371094"/>
     </g>
    </g>
    <g id="text_8">
     <!-- 1e6 -->
     <g transform="translate(690.321875 417.316562) scale(0.1 -0.1)">
      <use xlink:href="#DejaVuSans-31"/>
      <use xlink:href="#DejaVuSans-65" x="63.623047"/>
      <use xlink:href="#DejaVuSans-36" x="125.146484"/>
     </g>
    </g>
   </g>
   <g id="matplotlib.axis_2">
    <g id="ytick_1">
     <g id="line2d_13">
      <path d="M 54.2 374.939911 
L 709.2 374.939911 
" clip-path="url(#pf3e622fda9)" style="fill: none; stroke: #b0b0b0; stroke-width: 0.8; stroke-linecap: square"/>
     </g>
     <g id="line2d_14">
      <defs>
       <path id="md5311b9905" d="M 0 0 
L -3.5 0 
" style="stroke: #000000; stroke-width: 0.8"/>
      </defs>
      <g>
       <use xlink:href="#md5311b9905" x="54.2" y="374.939911" style="stroke: #000000; stroke-width: 0.8"/>
      </g>
     </g>
     <g id="text_9">
      <!-- 0.00 -->
      <g transform="translate(24.934375 378.73913) scale(0.1 -0.1)">
       <use xlink:href="#DejaVuSans-30"/>
       <use xlink:href="#DejaVuSans-2e" x="63.623047"/>
       <use xlink:href="#DejaVuSans-30" x="95.410156"/>
       <use xlink:href="#DejaVuSans-30" x="159.033203"/>
      </g>
     </g>
    </g>
    <g id="ytick_2">
     <g id="line2d_15">
      <path d="M 54.2 316.696726 
L 709.2 316.696726 
" clip-path="url(#pf3e622fda9)" style="fill: none; stroke: #b0b0b0; stroke-width: 0.8; stroke-linecap: square"/>
     </g>
     <g id="line2d_16">
      <g>
       <use xlink:href="#md5311b9905" x="54.2" y="316.696726" style="stroke: #000000; stroke-width: 0.8"/>
      </g>
     </g>
     <g id="text_10">
      <!-- 0.02 -->
      <g transform="translate(24.934375 320.495945) scale(0.1 -0.1)">
       <use xlink:href="#DejaVuSans-30"/>
       <use xlink:href="#DejaVuSans-2e" x="63.623047"/>
       <use xlink:href="#DejaVuSans-30" x="95.410156"/>
       <use xlink:href="#DejaVuSans-32" x="159.033203"/>
      </g>
     </g>
    </g>
    <g id="ytick_3">
     <g id="line2d_17">
      <path d="M 54.2 258.453542 
L 709.2 258.453542 
" clip-path="url(#pf3e622fda9)" style="fill: none; stroke: #b0b0b0; stroke-width: 0.8; stroke-linecap: square"/>
     </g>
     <g id="line2d_18">
      <g>
       <use xlink:href="#md5311b9905" x="54.2" y="258.453542" style="stroke: #000000; stroke-width: 0.8"/>
      </g>
     </g>
     <g id="text_11">
      <!-- 0.04 -->
      <g transform="translate(24.934375 262.252761) scale(0.1 -0.1)">
       <use xlink:href="#DejaVuSans-30"/>
       <use xlink:href="#DejaVuSans-2e" x="63.623047"/>
       <use xlink:href="#DejaVuSans-30" x="95.410156"/>
       <use xlink:href="#DejaVuSans-34" x="159.033203"/>
      </g>
     </g>
    </g>
    <g id="ytick_4">
     <g id="line2d_19">
      <path d="M 54.2 200.210358 
L 709.2 200.210358 
" clip-path="url(#pf3e622fda9)" style="fill: none; stroke: #b0b0b0; stroke-width: 0.8; stroke-linecap: square"/>
     </g>
     <g id="line2d_20">
      <g>
       <use xlink:href="#md5311b9905" x="54.2" y="200.210358" style="stroke: #000000; stroke-width: 0.8"/>
      </g>
     </g>
     <g id="text_12">
      <!-- 0.06 -->
      <g transform="translate(24.934375 204.009576) scale(0.1 -0.1)">
       <use xlink:href="#DejaVuSans-30"/>
       <use xlink:href="#DejaVuSans-2e" x="63.623047"/>
       <use xlink:href="#DejaVuSans-30" x="95.410156"/>
       <use xlink:href="#DejaVuSans-36" x="159.033203"/>
      </g>
     </g>
    </g>
    <g id="ytick_5">
     <g id="line2d_21">
      <path d="M 54.2 141.967173 
L 709.2 141.967173 
" clip-path="url(#pf3e622fda9)" style="fill: none; stroke: #b0b0b0; stroke-width: 0.8; stroke-linecap: square"/>
     </g>
     <g id="line2d_22">
      <g>
       <use xlink:href="#md5311b9905" x="54.2" y="141.967173" style="stroke: #000000; stroke-width: 0.8"/>
      </g>
     </g>
     <g id="text_13">
      <!-- 0.08 -->
      <g transform="translate(24.934375 145.766392) scale(0.1 -0.1)">
       <use xlink:href="#DejaVuSans-30"/>
       <use xlink:href="#DejaVuSans-2e" x="63.623047"/>
       <use xlink:href="#DejaVuSans-30" x="95.410156"/>
       <use xlink:href="#DejaVuSans-38" x="159.033203"/>
      </g>
     </g>
    </g>
    <g id="ytick_6">
     <g id="line2d_23">
      <path d="M 54.2 83.723989 
L 709.2 83.723989 
" clip-path="url(#pf3e622fda9)" style="fill: none; stroke: #b0b0b0; stroke-width: 0.8; stroke-linecap: square"/>
     </g>
     <g id="line2d_24">
      <g>
       <use xlink:href="#md5311b9905" x="54.2" y="83.723989" style="stroke: #000000; stroke-width: 0.8"/>
      </g>
     </g>
     <g id="text_14">
      <!-- 0.10 -->
      <g transform="translate(24.934375 87.523207) scale(0.1 -0.1)">
       <use xlink:href="#DejaVuSans-30"/>
       <use xlink:href="#DejaVuSans-2e" x="63.623047"/>
       <use xlink:href="#DejaVuSans-31" x="95.410156"/>
       <use xlink:href="#DejaVuSans-30" x="159.033203"/>
      </g>
     </g>
    </g>
    <g id="ytick_7">
     <g id="line2d_25">
      <path d="M 54.2 25.480804 
L 709.2 25.480804 
" clip-path="url(#pf3e622fda9)" style="fill: none; stroke: #b0b0b0; stroke-width: 0.8; stroke-linecap: square"/>
     </g>
     <g id="line2d_26">
      <g>
       <use xlink:href="#md5311b9905" x="54.2" y="25.480804" style="stroke: #000000; stroke-width: 0.8"/>
      </g>
     </g>
     <g id="text_15">
      <!-- 0.12 -->
      <g transform="translate(24.934375 29.280023) scale(0.1 -0.1)">
       <use xlink:href="#DejaVuSans-30"/>
       <use xlink:href="#DejaVuSans-2e" x="63.623047"/>
       <use xlink:href="#DejaVuSans-31" x="95.410156"/>
       <use xlink:href="#DejaVuSans-32" x="159.033203"/>
      </g>
     </g>
    </g>
    <g id="text_16">
     <!-- time, s -->
     <g transform="translate(18.854688 224.818906) rotate(-90) scale(0.1 -0.1)">
      <defs>
       <path id="DejaVuSans-2c" d="M 750 794 
L 1409 794 
L 1409 256 
L 897 -744 
L 494 -744 
L 750 256 
L 750 794 
z
" transform="scale(0.015625)"/>
      </defs>
      <use xlink:href="#DejaVuSans-74"/>
      <use xlink:href="#DejaVuSans-69" x="39.208984"/>
      <use xlink:href="#DejaVuSans-6d" x="66.992188"/>
      <use xlink:href="#DejaVuSans-65" x="164.404297"/>
      <use xlink:href="#DejaVuSans-2c" x="225.927734"/>
      <use xlink:href="#DejaVuSans-20" x="257.714844"/>
      <use xlink:href="#DejaVuSans-73" x="289.501953"/>
     </g>
    </g>
   </g>
   <g id="line2d_27">
    <path d="M 83.972727 372.826423 
L 89.98742 370.862212 
L 96.002112 368.738308 
L 102.016804 367.127502 
L 108.031497 363.984347 
L 114.046189 362.702648 
L 120.060882 360.401 
L 126.075574 358.018117 
L 132.090266 356.436473 
L 138.104959 351.883863 
L 144.119651 350.972232 
L 150.134343 348.967749 
L 156.149036 346.386988 
L 162.163728 343.07581 
L 168.178421 342.207227 
L 174.193113 338.489873 
L 180.207805 335.389073 
L 186.222498 333.47902 
L 192.23719 327.173962 
L 198.251882 322.33391 
L 204.266575 322.211013 
L 210.281267 319.657332 
L 216.29596 316.728719 
L 222.310652 311.940739 
L 228.325344 310.426443 
L 234.340037 313.885508 
L 240.354729 302.484891 
L 246.369421 304.317877 
L 252.384114 297.93367 
L 258.398806 299.902048 
L 264.413499 295.518156 
L 270.428191 292.76729 
L 276.442883 290.713513 
L 282.457576 287.618266 
L 288.472268 281.216006 
L 294.486961 286.875351 
L 300.501653 284.029362 
L 306.516345 280.200921 
L 312.531038 271.499791 
L 318.54573 271.39495 
L 324.560422 266.547953 
L 330.575115 252.435349 
L 336.589807 257.149733 
L 342.6045 267.0916 
L 348.619192 257.767673 
L 354.633884 253.737187 
L 360.648577 252.128463 
L 366.663269 252.452706 
L 372.677961 253.351148 
L 378.692654 249.067236 
L 384.707346 250.946741 
L 390.722039 239.400318 
L 396.736731 244.109148 
L 402.751423 237.013967 
L 408.766116 234.166588 
L 414.780808 239.295477 
L 420.7955 236.132188 
L 426.810193 230.212476 
L 432.824885 218.531357 
L 438.839578 222.938161 
L 444.85427 224.883627 
L 450.868962 220.7358 
L 456.883655 162.747485 
L 462.898347 199.021166 
L 468.913039 210.029497 
L 474.927732 211.036251 
L 480.942424 207.825054 
L 486.957117 202.886405 
L 492.971809 197.694333 
L 498.986501 201.951168 
L 505.001194 152.21823 
L 511.015886 190.011067 
L 517.030579 156.15429 
L 523.045271 118.769708 
L 529.059963 175.415223 
L 535.074656 175.613798 
L 541.089348 156.188312 
L 547.10404 168.090916 
L 553.118733 144.545378 
L 559.133425 149.743005 
L 565.148118 98.499245 
L 571.16281 134.915953 
L 577.177502 132.167862 
L 583.192195 133.327365 
L 589.206887 117.181119 
L 595.221579 107.435051 
L 601.236272 111.211417 
L 607.250964 95.156823 
L 613.265657 109.084737 
L 619.280349 103.554535 
L 625.295041 102.851196 
L 631.309734 100.921701 
L 637.324426 84.850441 
L 643.339118 84.101972 
L 649.353811 67.507202 
L 655.368503 81.296255 
L 661.383196 75.202964 
L 667.397888 74.819704 
L 673.41258 60.892483 
L 679.427273 42.012727 
" clip-path="url(#pf3e622fda9)" style="fill: none; stroke: #1f77b4; stroke-width: 1.5; stroke-linecap: square"/>
   </g>
   <g id="line2d_28">
    <path d="M 83.972727 355.781736 
L 89.98742 371.756487 
L 96.002112 370.351198 
L 102.016804 368.387681 
L 108.031497 366.730356 
L 114.046189 365.431297 
L 120.060882 363.126871 
L 126.075574 360.725242 
L 132.090266 360.124662 
L 138.104959 358.892953 
L 144.119651 357.439756 
L 150.134343 355.061733 
L 156.149036 354.229252 
L 162.163728 351.38257 
L 168.178421 350.088371 
L 174.193113 348.836524 
L 180.207805 347.386799 
L 186.222498 345.85445 
L 192.23719 344.686616 
L 198.251882 342.456484 
L 204.266575 342.125296 
L 210.281267 339.234873 
L 216.29596 339.277921 
L 222.310652 337.055425 
L 228.325344 335.65569 
L 234.340037 333.912963 
L 240.354729 331.189174 
L 246.369421 326.887213 
L 252.384114 324.514744 
L 258.398806 325.33334 
L 264.413499 323.317054 
L 270.428191 322.959485 
L 276.442883 319.769812 
L 282.457576 318.506855 
L 288.472268 317.143224 
L 294.486961 315.873328 
L 300.501653 315.301907 
L 306.516345 312.648939 
L 312.531038 311.097148 
L 318.54573 311.28253 
L 324.560422 307.5138 
L 330.575115 307.091656 
L 336.589807 305.41628 
L 342.6045 303.970722 
L 348.619192 301.689208 
L 354.633884 299.855529 
L 360.648577 298.899461 
L 366.663269 297.68233 
L 372.677961 296.868594 
L 378.692654 293.368563 
L 384.707346 291.284238 
L 390.722039 288.12442 
L 396.736731 288.166771 
L 402.751423 286.622619 
L 408.766116 285.615172 
L 414.780808 279.15112 
L 420.7955 276.357899 
L 426.810193 275.360866 
L 432.824885 272.251734 
L 438.839578 271.687951 
L 444.85427 270.953368 
L 450.868962 269.532802 
L 456.883655 269.872322 
L 462.898347 266.300777 
L 468.913039 264.434465 
L 474.927732 262.061302 
L 480.942424 260.999005 
L 486.957117 258.941754 
L 492.971809 258.375196 
L 498.986501 256.490831 
L 505.001194 252.785976 
L 511.015886 252.938032 
L 517.030579 248.690225 
L 523.045271 251.052278 
L 529.059963 246.695466 
L 535.074656 248.775627 
L 541.089348 244.188301 
L 547.10404 246.5448 
L 553.118733 241.064588 
L 559.133425 242.009549 
L 565.148118 239.101766 
L 571.16281 240.782001 
L 577.177502 236.446017 
L 583.192195 237.83742 
L 589.206887 235.441348 
L 595.221579 234.188808 
L 601.236272 229.086303 
L 607.250964 223.610256 
L 613.265657 226.539562 
L 619.280349 227.890696 
L 625.295041 225.756377 
L 631.309734 225.009991 
L 637.324426 223.093688 
L 643.339118 221.657848 
L 649.353811 214.85775 
L 655.368503 217.372551 
L 661.383196 214.388394 
L 667.397888 215.428475 
L 673.41258 214.269665 
L 679.427273 209.053292 
" clip-path="url(#pf3e622fda9)" style="fill: none; stroke: #ff7f0e; stroke-width: 1.5; stroke-linecap: square"/>
   </g>
   <g id="line2d_29">
    <path d="M 83.972727 373.467273 
L 89.98742 371.99047 
L 96.002112 370.537967 
L 102.016804 369.09102 
L 108.031497 366.833115 
L 114.046189 366.058262 
L 120.060882 364.246797 
L 126.075574 362.776244 
L 132.090266 361.2189 
L 138.104959 358.730483 
L 144.119651 357.684846 
L 150.134343 355.96434 
L 156.149036 354.7729 
L 162.163728 353.73143 
L 168.178421 352.948245 
L 174.193113 351.407565 
L 180.207805 349.396835 
L 186.222498 348.798337 
L 192.23719 347.276405 
L 198.251882 342.300957 
L 204.266575 342.037812 
L 210.281267 339.565365 
L 216.29596 339.425113 
L 222.310652 337.57616 
L 228.325344 336.45137 
L 234.340037 335.379352 
L 240.354729 332.372979 
L 246.369421 332.094559 
L 252.384114 331.095443 
L 258.398806 329.953991 
L 264.413499 328.083514 
L 270.428191 326.794173 
L 276.442883 325.27224 
L 282.457576 322.304747 
L 288.472268 321.668758 
L 294.486961 315.853886 
L 300.501653 318.204829 
L 306.516345 316.107311 
L 312.531038 314.71799 
L 318.54573 309.895294 
L 324.560422 307.40271 
L 330.575115 305.537091 
L 336.589807 303.75132 
L 342.6045 303.661753 
L 348.619192 303.411107 
L 354.633884 302.272432 
L 360.648577 299.037629 
L 366.663269 300.079792 
L 372.677961 299.359096 
L 378.692654 294.451691 
L 384.707346 294.045518 
L 390.722039 292.354174 
L 396.736731 292.591628 
L 402.751423 291.414767 
L 408.766116 289.092987 
L 414.780808 289.122146 
L 420.7955 286.346978 
L 426.810193 286.368501 
L 432.824885 282.876109 
L 438.839578 283.206601 
L 444.85427 277.812484 
L 450.868962 278.334608 
L 456.883655 275.930898 
L 462.898347 274.327728 
L 468.913039 272.870367 
L 474.927732 273.623696 
L 480.942424 270.044512 
L 486.957117 269.534887 
L 492.971809 268.54063 
L 498.986501 266.284807 
L 505.001194 262.268902 
L 511.015886 264.321985 
L 517.030579 261.253123 
L 523.045271 259.624265 
L 529.059963 256.989346 
L 535.074656 259.475681 
L 541.089348 257.066416 
L 547.10404 255.243845 
L 553.118733 252.436043 
L 559.133425 242.798287 
L 565.148118 238.512293 
L 571.16281 240.362638 
L 577.177502 237.050072 
L 583.192195 235.478839 
L 589.206887 234.280457 
L 595.221579 231.957285 
L 601.236272 228.447533 
L 607.250964 189.654887 
L 613.265657 225.139827 
L 619.280349 226.927683 
L 625.295041 222.11054 
L 631.309734 219.079172 
L 637.324426 223.40335 
L 643.339118 222.300783 
L 649.353811 214.454351 
L 655.368503 212.629697 
L 661.383196 216.718506 
L 667.397888 216.542844 
L 673.41258 213.87738 
L 679.427273 211.859705 
" clip-path="url(#pf3e622fda9)" style="fill: none; stroke: #2ca02c; stroke-width: 1.5; stroke-linecap: square"/>
   </g>
   <g id="line2d_30">
    <path d="M 83.972727 373.384649 
L 89.98742 371.680113 
L 96.002112 370.360916 
L 102.016804 368.346022 
L 108.031497 367.017108 
L 114.046189 365.402135 
L 120.060882 363.127567 
L 126.075574 361.58619 
L 132.090266 359.560186 
L 138.104959 358.783945 
L 144.119651 357.723033 
L 150.134343 356.084457 
L 156.149036 353.58632 
L 162.163728 351.672099 
L 168.178421 350.482046 
L 174.193113 348.972609 
L 180.207805 347.816578 
L 186.222498 346.212022 
L 192.23719 344.827561 
L 198.251882 342.378721 
L 204.266575 341.748285 
L 210.281267 339.741027 
L 216.29596 338.646789 
L 222.310652 336.610368 
L 228.325344 335.506412 
L 234.340037 333.206153 
L 240.354729 329.990096 
L 246.369421 327.30519 
L 252.384114 325.425682 
L 258.398806 324.256462 
L 264.413499 323.099735 
L 270.428191 321.687503 
L 276.442883 320.681443 
L 282.457576 317.555647 
L 288.472268 316.491265 
L 294.486961 315.237336 
L 300.501653 313.801498 
L 306.516345 311.190186 
L 312.531038 309.939728 
L 318.54573 310.177185 
L 324.560422 308.042867 
L 330.575115 304.566442 
L 336.589807 303.284739 
L 342.6045 301.700318 
L 348.619192 301.676019 
L 354.633884 297.547634 
L 360.648577 298.741156 
L 366.663269 297.181037 
L 372.677961 296.371468 
L 378.692654 292.100053 
L 384.707346 291.995908 
L 390.722039 287.993888 
L 396.736731 288.547257 
L 402.751423 286.923952 
L 408.766116 285.770003 
L 414.780808 277.219543 
L 420.7955 275.249082 
L 426.810193 273.448727 
L 432.824885 270.131996 
L 438.839578 271.110977 
L 444.85427 267.403347 
L 450.868962 264.769817 
L 456.883655 264.848274 
L 462.898347 263.998436 
L 468.913039 262.494553 
L 474.927732 261.54265 
L 480.942424 261.645408 
L 486.957117 255.675013 
L 492.971809 256.624834 
L 498.986501 251.244602 
L 505.001194 250.503076 
L 511.015886 251.27168 
L 517.030579 248.02577 
L 523.045271 248.31599 
L 529.059963 245.915057 
L 535.074656 246.622563 
L 541.089348 242.812868 
L 547.10404 242.89202 
L 553.118733 240.467479 
L 559.133425 239.005254 
L 565.148118 238.540759 
L 571.16281 237.237536 
L 577.177502 234.17492 
L 583.192195 230.426325 
L 589.206887 230.935952 
L 595.221579 229.818109 
L 601.236272 225.605711 
L 607.250964 224.06017 
L 613.265657 218.699383 
L 619.280349 221.579392 
L 625.295041 215.591637 
L 631.309734 220.354622 
L 637.324426 217.072607 
L 643.339118 214.685559 
L 649.353811 211.881229 
L 655.368503 200.584063 
L 661.383196 208.781122 
L 667.397888 209.630963 
L 673.41258 208.051399 
L 679.427273 203.464768 
" clip-path="url(#pf3e622fda9)" style="fill: none; stroke: #d62728; stroke-width: 1.5; stroke-linecap: square"/>
   </g>
   <g id="line2d_31">
    <path d="M 83.972727 373.417976 
L 89.98742 371.89535 
L 96.002112 370.251215 
L 102.016804 368.649437 
L 108.031497 366.528311 
L 114.046189 365.232027 
L 120.060882 363.592062 
L 126.075574 362.190245 
L 132.090266 359.118604 
L 138.104959 358.123653 
L 144.119651 356.984982 
L 150.134343 355.565112 
L 156.149036 353.069056 
L 162.163728 352.697599 
L 168.178421 351.324248 
L 174.193113 349.584993 
L 180.207805 347.702713 
L 186.222498 343.970781 
L 192.23719 341.637195 
L 198.251882 340.022222 
L 204.266575 339.579946 
L 210.281267 336.59579 
L 216.29596 335.618196 
L 222.310652 335.414068 
L 228.325344 332.313268 
L 234.340037 330.805914 
L 240.354729 329.232602 
L 246.369421 328.427891 
L 252.384114 327.703028 
L 258.398806 326.025569 
L 264.413499 324.094685 
L 270.428191 322.6401 
L 276.442883 320.945281 
L 282.457576 318.195804 
L 288.472268 315.88166 
L 294.486961 311.122143 
L 300.501653 309.36206 
L 306.516345 306.105733 
L 312.531038 306.653545 
L 318.54573 307.02917 
L 324.560422 303.415271 
L 330.575115 300.753275 
L 336.589807 298.312073 
L 342.6045 298.483567 
L 348.619192 298.012822 
L 354.633884 296.81444 
L 360.648577 295.376518 
L 366.663269 293.615046 
L 372.677961 292.896432 
L 378.692654 288.839562 
L 384.707346 288.267448 
L 390.722039 285.999126 
L 396.736731 286.635811 
L 402.751423 284.302921 
L 408.766116 281.368062 
L 414.780808 282.758076 
L 420.7955 277.442416 
L 426.810193 276.228756 
L 432.824885 274.331895 
L 438.839578 270.018821 
L 444.85427 272.073987 
L 450.868962 267.220743 
L 456.883655 268.131681 
L 462.898347 266.035549 
L 468.913039 263.697799 
L 474.927732 261.811349 
L 480.942424 259.957535 
L 486.957117 257.613535 
L 492.971809 256.378352 
L 498.986501 253.40947 
L 505.001194 249.180412 
L 511.015886 242.202567 
L 517.030579 221.452331 
L 523.045271 233.288977 
L 529.059963 237.158383 
L 535.074656 236.553636 
L 541.089348 234.970603 
L 547.10404 230.72974 
L 553.118733 231.873968 
L 559.133425 229.383469 
L 565.148118 228.686376 
L 571.16281 228.187861 
L 577.177502 221.403037 
L 583.192195 220.853833 
L 589.206887 222.075131 
L 595.221579 221.430114 
L 601.236272 216.896945 
L 607.250964 217.34547 
L 613.265657 212.632476 
L 619.280349 216.33247 
L 625.295041 212.75259 
L 631.309734 211.41118 
L 637.324426 208.372173 
L 643.339118 198.973258 
L 649.353811 202.143492 
L 655.368503 199.966126 
L 661.383196 193.212544 
L 667.397888 200.25496 
L 673.41258 200.160533 
L 679.427273 191.462878 
" clip-path="url(#pf3e622fda9)" style="fill: none; stroke: #9467bd; stroke-width: 1.5; stroke-linecap: square"/>
   </g>
   <g id="patch_3">
    <path d="M 54.2 390.04 
L 54.2 25.44 
" style="fill: none; stroke: #000000; stroke-width: 0.8; stroke-linejoin: miter; stroke-linecap: square"/>
   </g>
   <g id="patch_4">
    <path d="M 709.2 390.04 
L 709.2 25.44 
" style="fill: none; stroke: #000000; stroke-width: 0.8; stroke-linejoin: miter; stroke-linecap: square"/>
   </g>
   <g id="patch_5">
    <path d="M 54.2 390.04 
L 709.2 390.04 
" style="fill: none; stroke: #000000; stroke-width: 0.8; stroke-linejoin: miter; stroke-linecap: square"/>
   </g>
   <g id="patch_6">
    <path d="M 54.2 25.44 
L 709.2 25.44 
" style="fill: none; stroke: #000000; stroke-width: 0.8; stroke-linejoin: miter; stroke-linecap: square"/>
   </g>
   <g id="text_17">
    <!-- Point 2: random operations, p(insert)=p(find)=p(erase)=1/3 -->
    <g transform="translate(200.8675 19.44) scale(0.12 -0.12)">
     <defs>
      <path id="DejaVuSans-50" d="M 1259 4147 
L 1259 2394 
L 2053 2394 
Q 2494 2394 2734 2622 
Q 2975 2850 2975 3272 
Q 2975 3691 2734 3919 
Q 2494 4147 2053 4147 
L 1259 4147 
z
M 628 4666 
L 2053 4666 
Q 2838 4666 3239 4311 
Q 3641 3956 3641 3272 
Q 3641 2581 3239 2228 
Q 2838 1875 2053 1875 
L 1259 1875 
L 1259 0 
L 628 0 
L 628 4666 
z
" transform="scale(0.015625)"/>
      <path id="DejaVuSans-3a" d="M 750 794 
L 1409 794 
L 1409 0 
L 750 0 
L 750 794 
z
M 750 3309 
L 1409 3309 
L 1409 2516 
L 750 2516 
L 750 3309 
z
" transform="scale(0.015625)"/>
      <path id="DejaVuSans-64" d="M 2906 2969 
L 2906 4863 
L 3481 4863 
L 3481 0 
L 2906 0 
L 2906 525 
Q 2725 213 2448 61 
Q 2172 -91 1784 -91 
Q 1150 -91 751 415 
Q 353 922 353 1747 
Q 353 2572 751 3078 
Q 1150 3584 1784 3584 
Q 2172 3584 2448 3432 
Q 2725 3281 2906 2969 
z
M 947 1747 
Q 947 1113 1208 752 
Q 1469 391 1925 391 
Q 2381 391 2643 752 
Q 2906 1113 2906 1747 
Q 2906 2381 2643 2742 
Q 2381 3103 1925 3103 
Q 1469 3103 1208 2742 
Q 947 2381 947 1747 
z
" transform="scale(0.015625)"/>
      <path id="DejaVuSans-28" d="M 1984 4856 
Q 1566 4138 1362 3434 
Q 1159 2731 1159 2009 
Q 1159 1288 1364 580 
Q 1569 -128 1984 -844 
L 1484 -844 
Q 1016 -109 783 600 
Q 550 1309 550 2009 
Q 550 2706 781 3412 
Q 1013 4119 1484 4856 
L 1984 4856 
z
" transform="scale(0.015625)"/>
      <path id="DejaVuSans-29" d="M 513 4856 
L 1013 4856 
Q 1481 4119 1714 3412 
Q 1947 2706 1947 2009 
Q 1947 1309 1714 600 
Q 1481 -109 1013 -844 
L 513 -844 
Q 928 -128 1133 580 
Q 1338 1288 1338 2009 
Q 1338 2731 1133 3434 
Q 928 4138 513 4856 
z
" transform="scale(0.015625)"/>
      <path id="DejaVuSans-3d" d="M 678 2906 
L 4684 2906 
L 4684 2381 
L 678 2381 
L 678 2906 
z
M 678 1631 
L 4684 1631 
L 4684 1100 
L 678 1100 
L 678 1631 
z
" transform="scale(0.015625)"/>
      <path id="DejaVuSans-2f" d="M 1625 4666 
L 2156 4666 
L 531 -594 
L 0 -594 
L 1625 4666 
z
" transform="scale(0.015625)"/>
      <path id="DejaVuSans-33" d="M 2597 2516 
Q 3050 2419 3304 2112 
Q 3559 1806 3559 1356 
Q 3559 666 3084 287 
Q 2609 -91 1734 -91 
Q 1441 -91 1130 -33 
Q 819 25 488 141 
L 488 750 
Q 750 597 1062 519 
Q 1375 441 1716 441 
Q 2309 441 2620 675 
Q 2931 909 2931 1356 
Q 2931 1769 2642 2001 
Q 2353 2234 1838 2234 
L 1294 2234 
L 1294 2753 
L 1863 2753 
Q 2328 2753 2575 2939 
Q 2822 3125 2822 3475 
Q 2822 3834 2567 4026 
Q 2313 4219 1838 4219 
Q 1578 4219 1281 4162 
Q 984 4106 628 3988 
L 628 4550 
Q 988 4650 1302 4700 
Q 1616 4750 1894 4750 
Q 2613 4750 3031 4423 
Q 3450 4097 3450 3541 
Q 3450 3153 3228 2886 
Q 3006 2619 2597 2516 
z
" transform="scale(0.015625)"/>
     </defs>
     <use xlink:href="#DejaVuSans-50"/>
     <use xlink:href="#DejaVuSans-6f" x="56.677734"/>
     <use xlink:href="#DejaVuSans-69" x="117.859375"/>
     <use xlink:href="#DejaVuSans-6e" x="145.642578"/>
     <use xlink:href="#DejaVuSans-74" x="209.021484"/>
     <use xlink:href="#DejaVuSans-20" x="248.230469"/>
     <use xlink:href="#DejaVuSans-32" x="280.017578"/>
     <use xlink:href="#DejaVuSans-3a" x="343.640625"/>
     <use xlink:href="#DejaVuSans-20" x="377.332031"/>
     <use xlink:href="#DejaVuSans-72" x="409.119141"/>
     <use xlink:href="#DejaVuSans-61" x="450.232422"/>
     <use xlink:href="#DejaVuSans-6e" x="511.511719"/>
     <use xlink:href="#DejaVuSans-64" x="574.890625"/>
     <use xlink:href="#DejaVuSans-6f" x="638.367188"/>
     <use xlink:href="#DejaVuSans-6d" x="699.548828"/>
     <use xlink:href="#DejaVuSans-20" x="796.960938"/>
     <use xlink:href="#DejaVuSans-6f" x="828.748047"/>
     <use xlink:href="#DejaVuSans-70" x="889.929688"/>
     <use xlink:href="#DejaVuSans-65" x="953.40625"/>
     <use xlink:href="#DejaVuSans-72" x="1014.929688"/>
     <use xlink:href="#DejaVuSans-61" x="1056.042969"/>
     <use xlink:href="#DejaVuSans-74" x="1117.322266"/>
     <use xlink:href="#DejaVuSans-69" x="1156.53125"/>
     <use xlink:href="#DejaVuSans-6f" x="1184.314453"/>
     <use xlink:href="#DejaVuSans-6e" x="1245.496094"/>
     <use xlink:href="#DejaVuSans-73" x="1308.875"/>
     <use xlink:href="#DejaVuSans-2c" x="1360.974609"/>
     <use xlink:href="#DejaVuSans-20" x="1392.761719"/>
     <use xlink:href="#DejaVuSans-70" x="1424.548828"/>
     <use xlink:href="#DejaVuSans-28" x="1488.025391"/>
     <use xlink:href="#DejaVuSans-69" x="1527.039062"/>
     <use xlink:href="#DejaVuSans-6e" x="1554.822266"/>
     <use xlink:href="#DejaVuSans-73" x="1618.201172"/>
     <use xlink:href="#DejaVuSans-65" x="1670.300781"/>
     <use xlink:href="#DejaVuSans-72" x="1731.824219"/>
     <use xlink:href="#DejaVuSans-74" x="1772.9375"/>
     <use xlink:href="#DejaVuSans-29" x="1812.146484"/>
     <use xlink:href="#DejaVuSans-3d" x="1851.160156"/>
     <use xlink:href="#DejaVuSans-70" x="1934.949219"/>
     <use xlink:href="#DejaVuSans-28" x="1998.425781"/>
     <use xlink:href="#DejaVuSans-66" x="2037.439453"/>
     <use xlink:href="#DejaVuSans-69" x="2072.644531"/>
     <use xlink:href="#DejaVuSans-6e" x="2100.427734"/>
     <use xlink:href="#DejaVuSans-64" x="2163.806641"/>
     <use xlink:href="#DejaVuSans-29" x="2227.283203"/>
     <use xlink:href="#DejaVuSans-3d" x="2266.296875"/>
     <use xlink:href="#DejaVuSans-70" x="2350.085938"/>
     <use xlink:href="#DejaVuSans-28" x="2413.5625"/>
     <use xlink:href="#DejaVuSans-65" x="2452.576172"/>
     <use xlink:href="#DejaVuSans-72" x="2514.099609"/>
     <use xlink:href="#DejaVuSans-61" x="2555.212891"/>
     <use xlink:href="#DejaVuSans-73" x="2616.492188"/>
     <use xlink:href="#DejaVuSans-65" x="2668.591797"/>
     <use xlink:href="#DejaVuSans-29" x="2730.115234"/>
     <use xlink:href="#DejaVuSans-3d" x="2769.128906"/>
     <use xlink:href="#DejaVuSans-31" x="2852.917969"/>
     <use xlink:href="#DejaVuSans-2f" x="2916.541016"/>
     <use xlink:href="#DejaVuSans-33" x="2950.232422"/>
    </g>
   </g>
   <g id="legend_1">
    <g id="patch_7">
     <path d="M 61.2 107.665 
L 183.964063 107.665 
Q 185.964063 107.665 185.964063 105.665 
L 185.964063 32.44 
Q 185.964063 30.44 183.964063 30.44 
L 61.2 30.44 
Q 59.2 30.44 59.2 32.44 
L 59.2 105.665 
Q 59.2 107.665 61.2 107.665 
z
" style="fill: #ffffff; opacity: 0.8; stroke: #cccccc; stroke-linejoin: miter"/>
    </g>
    <g id="line2d_32">
     <path d="M 63.2 38.538437 
L 73.2 38.538437 
L 83.2 38.538437 
" style="fill: none; stroke: #1f77b4; stroke-width: 1.5; stroke-linecap: square"/>
    </g>
    <g id="text_18">
     <!-- chaining -->
     <g transform="translate(91.2 42.038437) scale(0.1 -0.1)">
      <defs>
       <path id="DejaVuSans-63" d="M 3122 3366 
L 3122 2828 
Q 2878 2963 2633 3030 
Q 2388 3097 2138 3097 
Q 1578 3097 1268 2742 
Q 959 2388 959 1747 
Q 959 1106 1268 751 
Q 1578 397 2138 397 
Q 2388 397 2633 464 
Q 2878 531 3122 666 
L 3122 134 
Q 2881 22 2623 -34 
Q 2366 -91 2075 -91 
Q 1284 -91 818 406 
Q 353 903 353 1747 
Q 353 2603 823 3093 
Q 1294 3584 2113 3584 
Q 2378 3584 2631 3529 
Q 2884 3475 3122 3366 
z
" transform="scale(0.015625)"/>
       <path id="DejaVuSans-68" d="M 3513 2113 
L 3513 0 
L 2938 0 
L 2938 2094 
Q 2938 2591 2744 2837 
Q 2550 3084 2163 3084 
Q 1697 3084 1428 2787 
Q 1159 2491 1159 1978 
L 1159 0 
L 581 0 
L 581 4863 
L 1159 4863 
L 1159 2956 
Q 1366 3272 1645 3428 
Q 1925 3584 2291 3584 
Q 2894 3584 3203 3211 
Q 3513 2838 3513 2113 
z
" transform="scale(0.015625)"/>
       <path id="DejaVuSans-67" d="M 2906 1791 
Q 2906 2416 2648 2759 
Q 2391 3103 1925 3103 
Q 1463 3103 1205 2759 
Q 947 2416 947 1791 
Q 947 1169 1205 825 
Q 1463 481 1925 481 
Q 2391 481 2648 825 
Q 2906 1169 2906 1791 
z
M 3481 434 
Q 3481 -459 3084 -895 
Q 2688 -1331 1869 -1331 
Q 1566 -1331 1297 -1286 
Q 1028 -1241 775 -1147 
L 775 -588 
Q 1028 -725 1275 -790 
Q 1522 -856 1778 -856 
Q 2344 -856 2625 -561 
Q 2906 -266 2906 331 
L 2906 616 
Q 2728 306 2450 153 
Q 2172 0 1784 0 
Q 1141 0 747 490 
Q 353 981 353 1791 
Q 353 2603 747 3093 
Q 1141 3584 1784 3584 
Q 2172 3584 2450 3431 
Q 2728 3278 2906 2969 
L 2906 3500 
L 3481 3500 
L 3481 434 
z
" transform="scale(0.015625)"/>
      </defs>
      <use xlink:href="#DejaVuSans-63"/>
      <use xlink:href="#DejaVuSans-68" x="54.980469"/>
      <use xlink:href="#DejaVuSans-61" x="118.359375"/>
      <use xlink:href="#DejaVuSans-69" x="179.638672"/>
      <use xlink:href="#DejaVuSans-6e" x="207.421875"/>
      <use xlink:href="#DejaVuSans-69" x="270.800781"/>
      <use xlink:href="#DejaVuSans-6e" x="298.583984"/>
      <use xlink:href="#DejaVuSans-67" x="361.962891"/>
     </g>
    </g>
    <g id="line2d_33">
     <path d="M 63.2 53.216563 
L 73.2 53.216563 
L 83.2 53.216563 
" style="fill: none; stroke: #ff7f0e; stroke-width: 1.5; stroke-linecap: square"/>
    </g>
    <g id="text_19">
     <!-- linear_probing -->
     <g transform="translate(91.2 56.716563) scale(0.1 -0.1)">
      <defs>
       <path id="DejaVuSans-6c" d="M 603 4863 
L 1178 4863 
L 1178 0 
L 603 0 
L 603 4863 
z
" transform="scale(0.015625)"/>
       <path id="DejaVuSans-5f" d="M 3263 -1063 
L 3263 -1509 
L -63 -1509 
L -63 -1063 
L 3263 -1063 
z
" transform="scale(0.015625)"/>
      </defs>
      <use xlink:href="#DejaVuSans-6c"/>
      <use xlink:href="#DejaVuSans-69" x="27.783203"/>
      <use xlink:href="#DejaVuSans-6e" x="55.566406"/>
      <use xlink:href="#DejaVuSans-65" x="118.945312"/>
      <use xlink:href="#DejaVuSans-61" x="180.46875"/>
      <use xlink:href="#DejaVuSans-72" x="241.748047"/>
      <use xlink:href="#DejaVuSans-5f" x="282.861328"/>
      <use xlink:href="#DejaVuSans-70" x="332.861328"/>
      <use xlink:href="#DejaVuSans-72" x="396.337891"/>
      <use xlink:href="#DejaVuSans-6f" x="435.201172"/>
      <use xlink:href="#DejaVuSans-62" x="496.382812"/>
      <use xlink:href="#DejaVuSans-69" x="559.859375"/>
      <use xlink:href="#DejaVuSans-6e" x="587.642578"/>
      <use xlink:href="#DejaVuSans-67" x="651.021484"/>
     </g>
    </g>
    <g id="line2d_34">
     <path d="M 63.2 68.172812 
L 73.2 68.172812 
L 83.2 68.172812 
" style="fill: none; stroke: #2ca02c; stroke-width: 1.5; stroke-linecap: square"/>
    </g>
    <g id="text_20">
     <!-- quadratic_probing -->
     <g transform="translate(91.2 71.672812) scale(0.1 -0.1)">
      <defs>
       <path id="DejaVuSans-71" d="M 947 1747 
Q 947 1113 1208 752 
Q 1469 391 1925 391 
Q 2381 391 2643 752 
Q 2906 1113 2906 1747 
Q 2906 2381 2643 2742 
Q 2381 3103 1925 3103 
Q 1469 3103 1208 2742 
Q 947 2381 947 1747 
z
M 2906 525 
Q 2725 213 2448 61 
Q 2172 -91 1784 -91 
Q 1150 -91 751 415 
Q 353 922 353 1747 
Q 353 2572 751 3078 
Q 1150 3584 1784 3584 
Q 2172 3584 2448 3432 
Q 2725 3281 2906 2969 
L 2906 3500 
L 3481 3500 
L 3481 -1331 
L 2906 -1331 
L 2906 525 
z
" transform="scale(0.015625)"/>
      </defs>
      <use xlink:href="#DejaVuSans-71"/>
      <use xlink:href="#DejaVuSans-75" x="63.476562"/>
      <use xlink:href="#DejaVuSans-61" x="126.855469"/>
      <use xlink:href="#DejaVuSans-64" x="188.134766"/>
      <use xlink:href="#DejaVuSans-72" x="251.611328"/>
      <use xlink:href="#DejaVuSans-61" x="292.724609"/>
      <use xlink:href="#DejaVuSans-74" x="354.003906"/>
      <use xlink:href="#DejaVuSans-69" x="393.212891"/>
      <use xlink:href="#DejaVuSans-63" x="420.996094"/>
      <use xlink:href="#DejaVuSans-5f" x="475.976562"/>
      <use xlink:href="#DejaVuSans-70" x="525.976562"/>
      <use xlink:href="#DejaVuSans-72" x="589.453125"/>
      <use xlink:href="#DejaVuSans-6f" x="628.316406"/>
      <use xlink:href="#DejaVuSans-62" x="689.498047"/>
      <use xlink:href="#DejaVuSans-69" x="752.974609"/>
      <use xlink:href="#DejaVuSans-6e" x="780.757812"/>
      <use xlink:href="#DejaVuSans-67" x="844.136719"/>
     </g>
    </g>
    <g id="line2d_35">
     <path d="M 63.2 83.129062 
L 73.2 83.129062 
L 83.2 83.129062 
" style="fill: none; stroke: #d62728; stroke-width: 1.5; stroke-linecap: square"/>
    </g>
    <g id="text_21">
     <!-- double_hashing -->
     <g transform="translate(91.2 86.629062) scale(0.1 -0.1)">
      <use xlink:href="#DejaVuSans-64"/>
      <use xlink:href="#DejaVuSans-6f" x="63.476562"/>
      <use xlink:href="#DejaVuSans-75" x="124.658203"/>
      <use xlink:href="#DejaVuSans-62" x="188.037109"/>
      <use xlink:href="#DejaVuSans-6c" x="251.513672"/>
      <use xlink:href="#DejaVuSans-65" x="279.296875"/>
      <use xlink:href="#DejaVuSans-5f" x="340.820312"/>
      <use xlink:href="#DejaVuSans-68" x="390.820312"/>
      <use xlink:href="#DejaVuSans-61" x="454.199219"/>
      <use xlink:href="#DejaVuSans-73" x="515.478516"/>
      <use xlink:href="#DejaVuSans-68" x="567.578125"/>
      <use xlink:href="#DejaVuSans-69" x="630.957031"/>
      <use xlink:href="#DejaVuSans-6e" x="658.740234"/>
      <use xlink:href="#DejaVuSans-67" x="722.119141"/>
     </g>
    </g>
    <g id="line2d_36">
     <path d="M 63.2 98.085312 
L 73.2 98.085312 
L 83.2 98.085312 
" style="fill: none; stroke: #9467bd; stroke-width: 1.5; stroke-linecap: square"/>
    </g>
    <g id="text_22">
     <!-- cuckoo -->
     <g transform="translate(91.2 101.585312) scale(0.1 -0.1)">
      <defs>
       <path id="DejaVuSans-6b" d="M 581 4863 
L 1159 4863 
L 1159 1991 
L 2875 3500 
L 3609 3500 
L 1753 1863 
L 3688 0 
L 2938 0 
L 1159 1709 
L 1159 0 
L 581 0 
L 581 4863 
z
" transform="scale(0.015625)"/>
      </defs>
      <use xlink:href="#DejaVuSans-63"/>
      <use xlink:href="#DejaVuSans-75" x="54.980469"/>
      <use xlink:href="#DejaVuSans-63" x="118.359375"/>
      <use xlink:href="#DejaVuSans-6b" x="173.339844"/>
      <use xlink:href="#DejaVuSans-6f" x="227.625"/>
      <use xlink:href="#DejaVuSans-6f" x="288.806641"/>
     </g>
    </g>
   </g>
  </g>
 </g>
 <defs>
  <clipPath id="pf3e622fda9">
   <rect x="54.2" y="25.44" width="655" height="364.6"/>
  </clipPath>
 </defs>
</svg>
