<?xml version="1.0" encoding="utf-8" standalone="no"?>
<!DOCTYPE svg PUBLIC "-//W3C//DTD SVG 1.1//EN"
  "http://www.w3.org/Graphics/SVG/1.1/DTD/svg11.dtd">
<svg xmlns:xlink="http://www.w3.org/1999/xlink" width="864pt" height="504pt" viewBox="0 0 864 504" xmlns="http://www.w3.org/2000/svg" version="1.1">
 <metadata>
  <rdf:RDF xmlns:dc="http://purl.org/dc/elements/1.1/" xmlns:cc="http://creativecommons.org/ns#" xmlns:rdf="http://www.w3.org/1999/02/22-rdf-syntax-ns#">
   <cc:Work>
    <dc:type rdf:resource="http://purl.org/dc/dcmitype/StillImage"/>
    <dc:date>2026-03-22T22:22:47.916178</dc:date>
    <dc:format>image/svg+xml</dc:format>
    <dc:creator>
     <cc:Agent>
      <dc:title>Matplotlib v3.10.8, https://matplotlib.org/</dc:title>
     </cc:Agent>
    </dc:creator>
   </cc:Work>
  </rdf:RDF>
 </metadata>
 <defs>
  <style type="text/css">*{stroke-linejoin: round; stroke-linecap: butt}</style>
 </defs>
 <g id="figure_1">
  <g id="patch_1">
   <path d="M 0 504 
L 864 504 
L 864 0 
L 0 0 
z
" style="fill: #ffffff"/>
  </g>
  <g id="axes_1">
   <g id="patch_2">
    <path d="M 54.02 462.04 
L 853.2 462.04 
L 853.2 26.88 
L 54.02 26.88 
z
" style="fill: #ffffff"/>
   </g>
   <g id="matplotlib.axis_1">
    <g id="xtick_1">
     <g id="line2d_1">
      <path d="M 90.346364 462.04 
L 90.346364 26.88 
" clip-path="url(#p3d071b4d0b)" style="fill: none; stroke: #b0b0b0; stroke-width: 0.8; stroke-linecap: square"/>
     </g>
     <g id="line2d_2">
      <defs>
       <path id="m95020f0a27" d="M 0 0 
L 0 3.5 
" style="stroke: #000000; stroke-width: 0.8"/>
      </defs>
      <g>
       <use xlink:href="#m95020f0a27" x="90.346364" y="462.04" style="stroke: #000000; stroke-width: 0.8"/>
      </g>
     </g>
     <g id="text_1">
      <!-- 0.0 -->
      <g transform="translate(82.394801 476.638438) scale(0.1 -0.1)">
       <defs>
        <path id="DejaVuSans-30" d="M 2034 4250 
Q 1547 4250 1301 3770 
Q 1056 3291 1056 2328 
Q 1056 1369 1301 889 
Q 1547 409 2034 409 
Q 2525 409 2770 889 
Q 3016 1369 3016 2328 
Q 3016 3291 2770 3770 
Q 2525 4250 2034 4250 
z
M 2034 4750 
Q 2819 4750 3233 4129 
Q 3647 3509 3647 2328 
Q 3647 1150 3233 529 
Q 2819 -91 2034 -91 
Q 1250 -91 836 529 
Q 422 1150 422 2328 
Q 422 3509 836 4129 
Q 1250 4750 2034 4750 
z
" transform="scale(0.015625)"/>
        <path id="DejaVuSans-2e" d="M 684 794 
L 1344 794 
L 1344 0 
L 684 0 
L 684 794 
z
" transform="scale(0.015625)"/>
       </defs>
       <use xlink:href="#DejaVuSans-30"/>
       <use xlink:href="#DejaVuSans-2e" transform="translate(63.623047 0)"/>
       <use xlink:href="#DejaVuSans-30" transform="translate(95.410156 0)"/>
      </g>
     </g>
    </g>
    <g id="xtick_2">
     <g id="line2d_3">
      <path d="M 235.651818 462.04 
L 235.651818 26.88 
" clip-path="url(#p3d071b4d0b)" style="fill: none; stroke: #b0b0b0; stroke-width: 0.8; stroke-linecap: square"/>
     </g>
     <g id="line2d_4">
      <g>
       <use xlink:href="#m95020f0a27" x="235.651818" y="462.04" style="stroke: #000000; stroke-width: 0.8"/>
      </g>
     </g>
     <g id="text_2">
      <!-- 0.2 -->
      <g transform="translate(227.700256 476.638438) scale(0.1 -0.1)">
       <defs>
        <path id="DejaVuSans-32" d="M 1228 531 
L 3431 531 
L 3431 0 
L 469 0 
L 469 531 
Q 828 903 1448 1529 
Q 2069 2156 2228 2338 
Q 2531 2678 2651 2914 
Q 2772 3150 2772 3378 
Q 2772 3750 2511 3984 
Q 2250 4219 1831 4219 
Q 1534 4219 1204 4116 
Q 875 4013 500 3803 
L 500 4441 
Q 881 4594 1212 4672 
Q 1544 4750 1819 4750 
Q 2544 4750 2975 4387 
Q 3406 4025 3406 3419 
Q 3406 3131 3298 2873 
Q 3191 2616 2906 2266 
Q 2828 2175 2409 1742 
Q 1991 1309 1228 531 
z
" transform="scale(0.015625)"/>
       </defs>
       <use xlink:href="#DejaVuSans-30"/>
       <use xlink:href="#DejaVuSans-2e" transform="translate(63.623047 0)"/>
       <use xlink:href="#DejaVuSans-32" transform="translate(95.410156 0)"/>
      </g>
     </g>
    </g>
    <g id="xtick_3">
     <g id="line2d_5">
      <path d="M 380.957273 462.04 
L 380.957273 26.88 
" clip-path="url(#p3d071b4d0b)" style="fill: none; stroke: #b0b0b0; stroke-width: 0.8; stroke-linecap: square"/>
     </g>
     <g id="line2d_6">
      <g>
       <use xlink:href="#m95020f0a27" x="380.957273" y="462.04" style="stroke: #000000; stroke-width: 0.8"/>
      </g>
     </g>
     <g id="text_3">
      <!-- 0.4 -->
      <g transform="translate(373.00571 476.638438) scale(0.1 -0.1)">
       <defs>
        <path id="DejaVuSans-34" d="M 2419 4116 
L 825 1625 
L 2419 1625 
L 2419 4116 
z
M 2253 4666 
L 3047 4666 
L 3047 1625 
L 3713 1625 
L 3713 1100 
L 3047 1100 
L 3047 0 
L 2419 0 
L 2419 1100 
L 313 1100 
L 313 1709 
L 2253 4666 
z
" transform="scale(0.015625)"/>
       </defs>
       <use xlink:href="#DejaVuSans-30"/>
       <use xlink:href="#DejaVuSans-2e" transform="translate(63.623047 0)"/>
       <use xlink:href="#DejaVuSans-34" transform="translate(95.410156 0)"/>
      </g>
     </g>
    </g>
    <g id="xtick_4">
     <g id="line2d_7">
      <path d="M 526.262727 462.04 
L 526.262727 26.88 
" clip-path="url(#p3d071b4d0b)" style="fill: none; stroke: #b0b0b0; stroke-width: 0.8; stroke-linecap: square"/>
     </g>
     <g id="line2d_8">
      <g>
       <use xlink:href="#m95020f0a27" x="526.262727" y="462.04" style="stroke: #000000; stroke-width: 0.8"/>
      </g>
     </g>
     <g id="text_4">
      <!-- 0.6 -->
      <g transform="translate(518.311165 476.638438) scale(0.1 -0.1)">
       <defs>
        <path id="DejaVuSans-36" d="M 2113 2584 
Q 1688 2584 1439 2293 
Q 1191 2003 1191 1497 
Q 1191 994 1439 701 
Q 1688 409 2113 409 
Q 2538 409 2786 701 
Q 3034 994 3034 1497 
Q 3034 2003 2786 2293 
Q 2538 2584 2113 2584 
z
M 3366 4563 
L 3366 3988 
Q 3128 4100 2886 4159 
Q 2644 4219 2406 4219 
Q 1781 4219 1451 3797 
Q 1122 3375 1075 2522 
Q 1259 2794 1537 2939 
Q 1816 3084 2150 3084 
Q 2853 3084 3261 2657 
Q 3669 2231 3669 1497 
Q 3669 778 3244 343 
Q 2819 -91 2113 -91 
Q 1303 -91 875 529 
Q 447 1150 447 2328 
Q 447 3434 972 4092 
Q 1497 4750 2381 4750 
Q 2619 4750 2861 4703 
Q 3103 4656 3366 4563 
z
" transform="scale(0.015625)"/>
       </defs>
       <use xlink:href="#DejaVuSans-30"/>
       <use xlink:href="#DejaVuSans-2e" transform="translate(63.623047 0)"/>
       <use xlink:href="#DejaVuSans-36" transform="translate(95.410156 0)"/>
      </g>
     </g>
    </g>
    <g id="xtick_5">
     <g id="line2d_9">
      <path d="M 671.568182 462.04 
L 671.568182 26.88 
" clip-path="url(#p3d071b4d0b)" style="fill: none; stroke: #b0b0b0; stroke-width: 0.8; stroke-linecap: square"/>
     </g>
     <g id="line2d_10">
      <g>
       <use xlink:href="#m95020f0a27" x="671.568182" y="462.04" style="stroke: #000000; stroke-width: 0.8"/>
      </g>
     </g>
     <g id="text_5">
      <!-- 0.8 -->
      <g transform="translate(663.616619 476.638438) scale(0.1 -0.1)">
       <defs>
        <path id="DejaVuSans-38" d="M 2034 2216 
Q 1584 2216 1326 1975 
Q 1069 1734 1069 1313 
Q 1069 891 1326 650 
Q 1584 409 2034 409 
Q 2484 409 2743 651 
Q 3003 894 3003 1313 
Q 3003 1734 2745 1975 
Q 2488 2216 2034 2216 
z
M 1403 2484 
Q 997 2584 770 2862 
Q 544 3141 544 3541 
Q 544 4100 942 4425 
Q 1341 4750 2034 4750 
Q 2731 4750 3128 4425 
Q 3525 4100 3525 3541 
Q 3525 3141 3298 2862 
Q 3072 2584 2669 2484 
Q 3125 2378 3379 2068 
Q 3634 1759 3634 1313 
Q 3634 634 3220 271 
Q 2806 -91 2034 -91 
Q 1263 -91 848 271 
Q 434 634 434 1313 
Q 434 1759 690 2068 
Q 947 2378 1403 2484 
z
M 1172 3481 
Q 1172 3119 1398 2916 
Q 1625 2713 2034 2713 
Q 2441 2713 2670 2916 
Q 2900 3119 2900 3481 
Q 2900 3844 2670 4047 
Q 2441 4250 2034 4250 
Q 1625 4250 1398 4047 
Q 1172 3844 1172 3481 
z
" transform="scale(0.015625)"/>
       </defs>
       <use xlink:href="#DejaVuSans-30"/>
       <use xlink:href="#DejaVuSans-2e" transform="translate(63.623047 0)"/>
       <use xlink:href="#DejaVuSans-38" transform="translate(95.410156 0)"/>
      </g>
     </g>
    </g>
    <g id="xtick_6">
     <g id="line2d_11">
      <path d="M 816.873636 462.04 
L 816.873636 26.88 
" clip-path="url(#p3d071b4d0b)" style="fill: none; stroke: #b0b0b0; stroke-width: 0.8; stroke-linecap: square"/>
     </g>
     <g id="line2d_12">
      <g>
       <use xlink:href="#m95020f0a27" x="816.873636" y="462.04" style="stroke: #000000; stroke-width: 0.8"/>
      </g>
     </g>
     <g id="text_6">
      <!-- 1.0 -->
      <g transform="translate(808.922074 476.638438) scale(0.1 -0.1)">
       <defs>
        <path id="DejaVuSans-31" d="M 794 531 
L 1825 531 
L 1825 4091 
L 703 3866 
L 703 4441 
L 1819 4666 
L 2450 4666 
L 2450 531 
L 3481 531 
L 3481 0 
L 794 0 
L 794 531 
z
" transform="scale(0.015625)"/>
       </defs>
       <use xlink:href="#DejaVuSans-31"/>
       <use xlink:href="#DejaVuSans-2e" transform="translate(63.623047 0)"/>
       <use xlink:href="#DejaVuSans-30" transform="translate(95.410156 0)"/>
      </g>
     </g>
    </g>
    <g id="text_7">
     <!-- Array size -->
     <g transform="translate(428.859219 490.316563) scale(0.1 -0.1)">
      <defs>
       <path id="DejaVuSans-41" d="M 2188 4044 
L 1331 1722 
L 3047 1722 
L 2188 4044 
z
M 1831 4666 
L 2547 4666 
L 4325 0 
L 3669 0 
L 3244 1197 
L 1141 1197 
L 716 0 
L 50 0 
L 1831 4666 
z
" transform="scale(0.015625)"/>
       <path id="DejaVuSans-72" d="M 2631 2963 
Q 2534 3019 2420 3045 
Q 2306 3072 2169 3072 
Q 1681 3072 1420 2755 
Q 1159 2438 1159 1844 
L 1159 0 
L 581 0 
L 581 3500 
L 1159 3500 
L 1159 2956 
Q 1341 3275 1631 3429 
Q 1922 3584 2338 3584 
Q 2397 3584 2469 3576 
Q 2541 3569 2628 3553 
L 2631 2963 
z
" transform="scale(0.015625)"/>
       <path id="DejaVuSans-61" d="M 2194 1759 
Q 1497 1759 1228 1600 
Q 959 1441 959 1056 
Q 959 750 1161 570 
Q 1363 391 1709 391 
Q 2188 391 2477 730 
Q 2766 1069 2766 1631 
L 2766 1759 
L 2194 1759 
z
M 3341 1997 
L 3341 0 
L 2766 0 
L 2766 531 
Q 2569 213 2275 61 
Q 1981 -91 1556 -91 
Q 1019 -91 701 211 
Q 384 513 384 1019 
Q 384 1609 779 1909 
Q 1175 2209 1959 2209 
L 2766 2209 
L 2766 2266 
Q 2766 2663 2505 2880 
Q 2244 3097 1772 3097 
Q 1472 3097 1187 3025 
Q 903 2953 641 2809 
L 641 3341 
Q 956 3463 1253 3523 
Q 1550 3584 1831 3584 
Q 2591 3584 2966 3190 
Q 3341 2797 3341 1997 
z
" transform="scale(0.015625)"/>
       <path id="DejaVuSans-79" d="M 2059 -325 
Q 1816 -950 1584 -1140 
Q 1353 -1331 966 -1331 
L 506 -1331 
L 506 -850 
L 844 -850 
Q 1081 -850 1212 -737 
Q 1344 -625 1503 -206 
L 1606 56 
L 191 3500 
L 800 3500 
L 1894 763 
L 2988 3500 
L 3597 3500 
L 2059 -325 
z
" transform="scale(0.015625)"/>
       <path id="DejaVuSans-20" transform="scale(0.015625)"/>
       <path id="DejaVuSans-73" d="M 2834 3397 
L 2834 2853 
Q 2591 2978 2328 3040 
Q 2066 3103 1784 3103 
Q 1356 3103 1142 2972 
Q 928 2841 928 2578 
Q 928 2378 1081 2264 
Q 1234 2150 1697 2047 
L 1894 2003 
Q 2506 1872 2764 1633 
Q 3022 1394 3022 966 
Q 3022 478 2636 193 
Q 2250 -91 1575 -91 
Q 1294 -91 989 -36 
Q 684 19 347 128 
L 347 722 
Q 666 556 975 473 
Q 1284 391 1588 391 
Q 1994 391 2212 530 
Q 2431 669 2431 922 
Q 2431 1156 2273 1281 
Q 2116 1406 1581 1522 
L 1381 1569 
Q 847 1681 609 1914 
Q 372 2147 372 2553 
Q 372 3047 722 3315 
Q 1072 3584 1716 3584 
Q 2034 3584 2315 3537 
Q 2597 3491 2834 3397 
z
" transform="scale(0.015625)"/>
       <path id="DejaVuSans-69" d="M 603 3500 
L 1178 3500 
L 1178 0 
L 603 0 
L 603 3500 
z
M 603 4863 
L 1178 4863 
L 1178 4134 
L 603 4134 
L 603 4863 
z
" transform="scale(0.015625)"/>
       <path id="DejaVuSans-7a" d="M 353 3500 
L 3084 3500 
L 3084 2975 
L 922 459 
L 3084 459 
L 3084 0 
L 275 0 
L 275 525 
L 2438 3041 
L 353 3041 
L 353 3500 
z
" transform="scale(0.015625)"/>
       <path id="DejaVuSans-65" d="M 3597 1894 
L 3597 1613 
L 953 1613 
Q 991 1019 1311 708 
Q 1631 397 2203 397 
Q 2534 397 2845 478 
Q 3156 559 3463 722 
L 3463 178 
Q 3153 47 2828 -22 
Q 2503 -91 2169 -91 
Q 1331 -91 842 396 
Q 353 884 353 1716 
Q 353 2575 817 3079 
Q 1281 3584 2069 3584 
Q 2775 3584 3186 3129 
Q 3597 2675 3597 1894 
z
M 3022 2063 
Q 3016 2534 2758 2815 
Q 2500 3097 2075 3097 
Q 1594 3097 1305 2825 
Q 1016 2553 972 2059 
L 3022 2063 
z
" transform="scale(0.015625)"/>
      </defs>
      <use xlink:href="#DejaVuSans-41"/>
      <use xlink:href="#DejaVuSans-72" transform="translate(68.408203 0)"/>
      <use xlink:href="#DejaVuSans-72" transform="translate(107.771484 0)"/>
      <use xlink:href="#DejaVuSans-61" transform="translate(148.884766 0)"/>
      <use xlink:href="#DejaVuSans-79" transform="translate(210.164062 0)"/>
      <use xlink:href="#DejaVuSans-20" transform="translate(269.34375 0)"/>
      <use xlink:href="#DejaVuSans-73" transform="translate(301.130859 0)"/>
      <use xlink:href="#DejaVuSans-69" transform="translate(353.230469 0)"/>
      <use xlink:href="#DejaVuSans-7a" transform="translate(381.013672 0)"/>
      <use xlink:href="#DejaVuSans-65" transform="translate(433.503906 0)"/>
     </g>
    </g>
    <g id="text_8">
     <!-- 1e6 -->
     <g transform="translate(834.321875 489.316563) scale(0.1 -0.1)">
      <use xlink:href="#DejaVuSans-31"/>
      <use xlink:href="#DejaVuSans-65" transform="translate(63.623047 0)"/>
      <use xlink:href="#DejaVuSans-36" transform="translate(125.146484 0)"/>
     </g>
    </g>
   </g>
   <g id="matplotlib.axis_2">
    <g id="ytick_1">
     <g id="line2d_13">
      <path d="M 54.02 442.264176 
L 853.2 442.264176 
" clip-path="url(#p3d071b4d0b)" style="fill: none; stroke: #b0b0b0; stroke-width: 0.8; stroke-linecap: square"/>
     </g>
     <g id="line2d_14">
      <defs>
       <path id="m39eeb17642" d="M 0 0 
L -3.5 0 
" style="stroke: #000000; stroke-width: 0.8"/>
      </defs>
      <g>
       <use xlink:href="#m39eeb17642" x="54.02" y="442.264176" style="stroke: #000000; stroke-width: 0.8"/>
      </g>
     </g>
     <g id="text_9">
      <!-- 0.00 -->
      <g transform="translate(24.754375 446.063395) scale(0.1 -0.1)">
       <use xlink:href="#DejaVuSans-30"/>
       <use xlink:href="#DejaVuSans-2e" transform="translate(63.623047 0)"/>
       <use xlink:href="#DejaVuSans-30" transform="translate(95.410156 0)"/>
       <use xlink:href="#DejaVuSans-30" transform="translate(159.033203 0)"/>
      </g>
     </g>
    </g>
    <g id="ytick_2">
     <g id="line2d_15">
      <path d="M 54.02 372.658445 
L 853.2 372.658445 
" clip-path="url(#p3d071b4d0b)" style="fill: none; stroke: #b0b0b0; stroke-width: 0.8; stroke-linecap: square"/>
     </g>
     <g id="line2d_16">
      <g>
       <use xlink:href="#m39eeb17642" x="54.02" y="372.658445" style="stroke: #000000; stroke-width: 0.8"/>
      </g>
     </g>
     <g id="text_10">
      <!-- 0.02 -->
      <g transform="translate(24.754375 376.457663) scale(0.1 -0.1)">
       <use xlink:href="#DejaVuSans-30"/>
       <use xlink:href="#DejaVuSans-2e" transform="translate(63.623047 0)"/>
       <use xlink:href="#DejaVuSans-30" transform="translate(95.410156 0)"/>
       <use xlink:href="#DejaVuSans-32" transform="translate(159.033203 0)"/>
      </g>
     </g>
    </g>
    <g id="ytick_3">
     <g id="line2d_17">
      <path d="M 54.02 303.052713 
L 853.2 303.052713 
" clip-path="url(#p3d071b4d0b)" style="fill: none; stroke: #b0b0b0; stroke-width: 0.8; stroke-linecap: square"/>
     </g>
     <g id="line2d_18">
      <g>
       <use xlink:href="#m39eeb17642" x="54.02" y="303.052713" style="stroke: #000000; stroke-width: 0.8"/>
      </g>
     </g>
     <g id="text_11">
      <!-- 0.04 -->
      <g transform="translate(24.754375 306.851932) scale(0.1 -0.1)">
       <use xlink:href="#DejaVuSans-30"/>
       <use xlink:href="#DejaVuSans-2e" transform="translate(63.623047 0)"/>
       <use xlink:href="#DejaVuSans-30" transform="translate(95.410156 0)"/>
       <use xlink:href="#DejaVuSans-34" transform="translate(159.033203 0)"/>
      </g>
     </g>
    </g>
    <g id="ytick_4">
     <g id="line2d_19">
      <path d="M 54.02 233.446981 
L 853.2 233.446981 
" clip-path="url(#p3d071b4d0b)" style="fill: none; stroke: #b0b0b0; stroke-width: 0.8; stroke-linecap: square"/>
     </g>
     <g id="line2d_20">
      <g>
       <use xlink:href="#m39eeb17642" x="54.02" y="233.446981" style="stroke: #000000; stroke-width: 0.8"/>
      </g>
     </g>
     <g id="text_12">
      <!-- 0.06 -->
      <g transform="translate(24.754375 237.2462) scale(0.1 -0.1)">
       <use xlink:href="#DejaVuSans-30"/>
       <use xlink:href="#DejaVuSans-2e" transform="translate(63.623047 0)"/>
       <use xlink:href="#DejaVuSans-30" transform="translate(95.410156 0)"/>
       <use xlink:href="#DejaVuSans-36" transform="translate(159.033203 0)"/>
      </g>
     </g>
    </g>
    <g id="ytick_5">
     <g id="line2d_21">
      <path d="M 54.02 163.841249 
L 853.2 163.841249 
" clip-path="url(#p3d071b4d0b)" style="fill: none; stroke: #b0b0b0; stroke-width: 0.8; stroke-linecap: square"/>
     </g>
     <g id="line2d_22">
      <g>
       <use xlink:href="#m39eeb17642" x="54.02" y="163.841249" style="stroke: #000000; stroke-width: 0.8"/>
      </g>
     </g>
     <g id="text_13">
      <!-- 0.08 -->
      <g transform="translate(24.754375 167.640468) scale(0.1 -0.1)">
       <use xlink:href="#DejaVuSans-30"/>
       <use xlink:href="#DejaVuSans-2e" transform="translate(63.623047 0)"/>
       <use xlink:href="#DejaVuSans-30" transform="translate(95.410156 0)"/>
       <use xlink:href="#DejaVuSans-38" transform="translate(159.033203 0)"/>
      </g>
     </g>
    </g>
    <g id="ytick_6">
     <g id="line2d_23">
      <path d="M 54.02 94.235518 
L 853.2 94.235518 
" clip-path="url(#p3d071b4d0b)" style="fill: none; stroke: #b0b0b0; stroke-width: 0.8; stroke-linecap: square"/>
     </g>
     <g id="line2d_24">
      <g>
       <use xlink:href="#m39eeb17642" x="54.02" y="94.235518" style="stroke: #000000; stroke-width: 0.8"/>
      </g>
     </g>
     <g id="text_14">
      <!-- 0.10 -->
      <g transform="translate(24.754375 98.034736) scale(0.1 -0.1)">
       <use xlink:href="#DejaVuSans-30"/>
       <use xlink:href="#DejaVuSans-2e" transform="translate(63.623047 0)"/>
       <use xlink:href="#DejaVuSans-31" transform="translate(95.410156 0)"/>
       <use xlink:href="#DejaVuSans-30" transform="translate(159.033203 0)"/>
      </g>
     </g>
    </g>
    <g id="text_15">
     <!-- Average time, sec -->
     <g transform="translate(18.674687 289.486562) rotate(-90) scale(0.1 -0.1)">
      <defs>
       <path id="DejaVuSans-76" d="M 191 3500 
L 800 3500 
L 1894 563 
L 2988 3500 
L 3597 3500 
L 2284 0 
L 1503 0 
L 191 3500 
z
" transform="scale(0.015625)"/>
       <path id="DejaVuSans-67" d="M 2906 1791 
Q 2906 2416 2648 2759 
Q 2391 3103 1925 3103 
Q 1463 3103 1205 2759 
Q 947 2416 947 1791 
Q 947 1169 1205 825 
Q 1463 481 1925 481 
Q 2391 481 2648 825 
Q 2906 1169 2906 1791 
z
M 3481 434 
Q 3481 -459 3084 -895 
Q 2688 -1331 1869 -1331 
Q 1566 -1331 1297 -1286 
Q 1028 -1241 775 -1147 
L 775 -588 
Q 1028 -725 1275 -790 
Q 1522 -856 1778 -856 
Q 2344 -856 2625 -561 
Q 2906 -266 2906 331 
L 2906 616 
Q 2728 306 2450 153 
Q 2172 0 1784 0 
Q 1141 0 747 490 
Q 353 981 353 1791 
Q 353 2603 747 3093 
Q 1141 3584 1784 3584 
Q 2172 3584 2450 3431 
Q 2728 3278 2906 2969 
L 2906 3500 
L 3481 3500 
L 3481 434 
z
" transform="scale(0.015625)"/>
       <path id="DejaVuSans-74" d="M 1172 4494 
L 1172 3500 
L 2356 3500 
L 2356 3053 
L 1172 3053 
L 1172 1153 
Q 1172 725 1289 603 
Q 1406 481 1766 481 
L 2356 481 
L 2356 0 
L 1766 0 
Q 1100 0 847 248 
Q 594 497 594 1153 
L 594 3053 
L 172 3053 
L 172 3500 
L 594 3500 
L 594 4494 
L 1172 4494 
z
" transform="scale(0.015625)"/>
       <path id="DejaVuSans-6d" d="M 3328 2828 
Q 3544 3216 3844 3400 
Q 4144 3584 4550 3584 
Q 5097 3584 5394 3201 
Q 5691 2819 5691 2113 
L 5691 0 
L 5113 0 
L 5113 2094 
Q 5113 2597 4934 2840 
Q 4756 3084 4391 3084 
Q 3944 3084 3684 2787 
Q 3425 2491 3425 1978 
L 3425 0 
L 2847 0 
L 2847 2094 
Q 2847 2600 2669 2842 
Q 2491 3084 2119 3084 
Q 1678 3084 1418 2786 
Q 1159 2488 1159 1978 
L 1159 0 
L 581 0 
L 581 3500 
L 1159 3500 
L 1159 2956 
Q 1356 3278 1631 3431 
Q 1906 3584 2284 3584 
Q 2666 3584 2933 3390 
Q 3200 3197 3328 2828 
z
" transform="scale(0.015625)"/>
       <path id="DejaVuSans-2c" d="M 750 794 
L 1409 794 
L 1409 256 
L 897 -744 
L 494 -744 
L 750 256 
L 750 794 
z
" transform="scale(0.015625)"/>
       <path id="DejaVuSans-63" d="M 3122 3366 
L 3122 2828 
Q 2878 2963 2633 3030 
Q 2388 3097 2138 3097 
Q 1578 3097 1268 2742 
Q 959 2388 959 1747 
Q 959 1106 1268 751 
Q 1578 397 2138 397 
Q 2388 397 2633 464 
Q 2878 531 3122 666 
L 3122 134 
Q 2881 22 2623 -34 
Q 2366 -91 2075 -91 
Q 1284 -91 818 406 
Q 353 903 353 1747 
Q 353 2603 823 3093 
Q 1294 3584 2113 3584 
Q 2378 3584 2631 3529 
Q 2884 3475 3122 3366 
z
" transform="scale(0.015625)"/>
      </defs>
      <use xlink:href="#DejaVuSans-41"/>
      <use xlink:href="#DejaVuSans-76" transform="translate(62.533203 0)"/>
      <use xlink:href="#DejaVuSans-65" transform="translate(121.712891 0)"/>
      <use xlink:href="#DejaVuSans-72" transform="translate(183.236328 0)"/>
      <use xlink:href="#DejaVuSans-61" transform="translate(224.349609 0)"/>
      <use xlink:href="#DejaVuSans-67" transform="translate(285.628906 0)"/>
      <use xlink:href="#DejaVuSans-65" transform="translate(349.105469 0)"/>
      <use xlink:href="#DejaVuSans-20" transform="translate(410.628906 0)"/>
      <use xlink:href="#DejaVuSans-74" transform="translate(442.416016 0)"/>
      <use xlink:href="#DejaVuSans-69" transform="translate(481.625 0)"/>
      <use xlink:href="#DejaVuSans-6d" transform="translate(509.408203 0)"/>
      <use xlink:href="#DejaVuSans-65" transform="translate(606.820312 0)"/>
      <use xlink:href="#DejaVuSans-2c" transform="translate(668.34375 0)"/>
      <use xlink:href="#DejaVuSans-20" transform="translate(700.130859 0)"/>
      <use xlink:href="#DejaVuSans-73" transform="translate(731.917969 0)"/>
      <use xlink:href="#DejaVuSans-65" transform="translate(784.017578 0)"/>
      <use xlink:href="#DejaVuSans-63" transform="translate(845.541016 0)"/>
     </g>
    </g>
   </g>
   <g id="line2d_25">
    <path d="M 90.346364 442.259304 
L 90.38269 442.254432 
L 90.419016 442.248167 
L 90.455343 442.244687 
L 90.491669 442.236334 
L 90.527995 442.215452 
L 90.564322 442.223805 
L 90.600648 442.213364 
L 90.636975 442.213364 
L 90.673301 442.2071 
L 90.709627 442.193875 
L 90.745954 442.186218 
L 90.78228 442.185522 
L 90.818606 442.171601 
L 90.854933 442.172993 
L 90.891259 442.159768 
L 90.927585 442.147935 
L 90.963912 442.147239 
L 91.000238 442.14167 
L 91.036565 442.136102 
L 91.072891 442.120789 
" clip-path="url(#p3d071b4d0b)" style="fill: none; stroke: #1f77b4; stroke-width: 1.5; stroke-linecap: square"/>
   </g>
   <g id="line2d_26">
    <path d="M 90.346364 442.259304 
L 97.611636 439.736096 
L 104.876909 437.361845 
L 112.142182 434.778776 
L 119.407455 431.759975 
L 126.672727 428.849064 
L 133.938 425.730031 
L 141.203273 423.356475 
L 148.468545 420.207512 
L 155.733818 417.299385 
L 162.999091 414.21237 
L 170.264364 410.958302 
L 177.529636 407.399361 
L 184.794909 404.649935 
L 192.060182 401.681251 
L 199.325455 398.679155 
L 206.590727 395.65757 
L 213.856 391.074033 
L 221.121273 388.254305 
L 228.386545 385.305806 
L 235.651818 381.400228 
L 242.917091 376.734556 
L 250.182364 374.748009 
L 257.447636 371.375611 
L 264.712909 365.961677 
L 271.978182 364.454017 
L 279.243455 360.336838 
L 286.508727 357.136366 
L 293.774 353.967217 
L 301.039273 350.390875 
L 308.304545 338.719386 
L 315.569818 341.424265 
L 322.835091 332.058117 
L 330.100364 333.255336 
L 337.365636 332.98457 
L 344.630909 329.345582 
L 351.896182 324.164131 
L 359.161455 323.301716 
L 366.426727 320.646258 
L 373.692 312.890091 
L 380.957273 312.481505 
L 388.222545 299.9831 
L 395.487818 305.998427 
L 402.753091 305.494482 
L 410.018364 300.738322 
L 417.283636 294.820443 
L 424.548909 289.286787 
L 431.814182 282.729927 
L 439.079455 281.037812 
L 446.344727 277.926436 
L 453.61 278.467272 
L 460.875273 277.903466 
L 468.140545 275.302996 
L 475.405818 268.047294 
L 482.671091 265.663298 
L 489.936364 261.931039 
L 497.201636 249.803632 
L 504.466909 245.468587 
L 511.732182 243.072758 
L 518.997455 240.005929 
L 526.262727 234.637239 
L 533.528 231.496629 
L 540.793273 225.221672 
L 548.058545 218.990567 
L 555.323818 216.426988 
L 562.589091 214.297748 
L 569.854364 209.575695 
L 577.119636 204.887749 
L 584.384909 197.115573 
L 591.650182 195.133202 
L 598.915455 195.095615 
L 606.180727 183.660785 
L 613.446 185.991185 
L 620.711273 185.831092 
L 627.976545 180.56333 
L 635.241818 172.306002 
L 642.507091 171.453332 
L 649.772364 164.415497 
L 657.037636 159.529174 
L 664.302909 158.839382 
L 671.568182 148.618476 
L 678.833455 149.138431 
L 686.098727 141.582728 
L 693.364 135.716357 
L 700.629273 125.577587 
L 707.894545 128.633974 
L 715.159818 128.807989 
L 722.425091 125.551136 
L 729.690364 121.585002 
L 736.955636 117.176175 
L 744.220909 110.707018 
L 751.486182 111.776858 
L 758.751455 107.122323 
L 766.016727 99.538778 
L 773.282 99.603512 
L 780.547273 91.75825 
L 787.812545 86.748029 
L 795.077818 86.588632 
L 802.343091 82.391406 
L 809.608364 73.777697 
L 816.873636 74.326886 
" clip-path="url(#p3d071b4d0b)" style="fill: none; stroke: #ff7f0e; stroke-width: 1.5; stroke-linecap: square"/>
   </g>
   <g id="line2d_27">
    <path d="M 90.346364 442.258608 
L 97.611636 439.356049 
L 104.876909 437.147459 
L 112.142182 434.588056 
L 119.407455 431.30197 
L 126.672727 428.83375 
L 133.938 425.565065 
L 141.203273 423.454619 
L 148.468545 420.995449 
L 155.733818 417.723284 
L 162.999091 414.112834 
L 170.264364 411.294498 
L 177.529636 407.924885 
L 184.794909 405.980101 
L 192.060182 403.54738 
L 199.325455 400.546677 
L 206.590727 398.477995 
L 213.856 395.13692 
L 221.121273 392.969397 
L 228.386545 389.471013 
L 235.651818 386.651981 
L 242.917091 383.505802 
L 250.182364 380.723661 
L 257.447636 377.464024 
L 264.712909 373.435941 
L 271.978182 369.839412 
L 279.243455 369.431523 
L 286.508727 366.284648 
L 293.774 362.209232 
L 301.039273 360.199715 
L 308.304545 357.841472 
L 315.569818 353.795291 
L 322.835091 346.44771 
L 330.100364 345.136338 
L 337.365636 342.059069 
L 344.630909 337.871588 
L 351.896182 335.625411 
L 359.161455 331.939092 
L 366.426727 330.456489 
L 373.692 325.485248 
L 380.957273 323.285707 
L 388.222545 313.295892 
L 395.487818 314.71933 
L 402.753091 316.213765 
L 410.018364 314.94694 
L 417.283636 310.929297 
L 424.548909 308.839037 
L 431.814182 297.415345 
L 439.079455 296.22091 
L 446.344727 293.884942 
L 453.61 289.519966 
L 460.875273 286.114158 
L 468.140545 282.952666 
L 475.405818 278.103234 
L 482.671091 269.689294 
L 489.936364 269.09138 
L 497.201636 270.049155 
L 504.466909 266.325249 
L 511.732182 258.141007 
L 518.997455 261.46468 
L 526.262727 257.035668 
L 533.528 254.286241 
L 540.793273 247.973001 
L 548.058545 238.135623 
L 555.323818 236.748381 
L 562.589091 240.38528 
L 569.854364 232.024936 
L 577.119636 234.606613 
L 584.384909 231.907302 
L 591.650182 233.285496 
L 598.915455 226.376431 
L 606.180727 220.821894 
L 613.446 220.04579 
L 620.711273 212.622338 
L 627.976545 201.898879 
L 635.241818 203.577073 
L 642.507091 200.655025 
L 649.772364 202.452245 
L 657.037636 188.122513 
L 664.302909 182.073775 
L 671.568182 187.999311 
L 678.833455 180.999758 
L 686.098727 187.57402 
L 693.364 178.27191 
L 700.629273 173.968883 
L 707.894545 179.838735 
L 715.159818 171.205536 
L 722.425091 173.018069 
L 729.690364 166.157728 
L 736.955636 168.128266 
L 744.220909 162.721293 
L 751.486182 152.481594 
L 758.751455 141.453262 
L 766.016727 130.231426 
L 773.282 134.150228 
L 780.547273 132.789436 
L 787.812545 126.675269 
L 795.077818 126.634202 
L 802.343091 121.257159 
L 809.608364 119.712608 
L 816.873636 114.279184 
" clip-path="url(#p3d071b4d0b)" style="fill: none; stroke: #2ca02c; stroke-width: 1.5; stroke-linecap: square"/>
   </g>
   <g id="line2d_28">
    <path d="M 90.346364 442.259304 
L 97.611636 440.879718 
L 104.876909 439.178554 
L 112.142182 437.759989 
L 119.407455 436.204997 
L 126.672727 434.542116 
L 133.938 432.778307 
L 141.203273 431.418907 
L 148.468545 429.767859 
L 155.733818 427.657414 
L 162.999091 426.038384 
L 170.264364 424.034435 
L 177.529636 422.139071 
L 184.794909 420.703801 
L 192.060182 418.812613 
L 199.325455 416.937435 
L 206.590727 415.097755 
L 213.856 413.317937 
L 221.121273 411.58893 
L 228.386545 408.923727 
L 235.651818 407.361078 
L 242.917091 405.947386 
L 250.182364 404.030444 
L 257.447636 402.297957 
L 264.712909 400.14018 
L 271.978182 399.39679 
L 279.243455 396.380078 
L 286.508727 395.137616 
L 293.774 392.823225 
L 301.039273 390.759415 
L 308.304545 389.331106 
L 315.569818 386.944325 
L 322.835091 384.138518 
L 330.100364 383.295593 
L 337.365636 381.602781 
L 344.630909 379.781199 
L 351.896182 377.205091 
L 359.161455 376.291864 
L 366.426727 374.091627 
L 373.692 372.733619 
L 380.957273 369.954958 
L 388.222545 369.12665 
L 395.487818 366.050772 
L 402.753091 364.380235 
L 410.018364 361.979533 
L 417.283636 360.084169 
L 424.548909 357.930568 
L 431.814182 356.191817 
L 439.079455 355.800632 
L 446.344727 353.865593 
L 453.61 349.930781 
L 460.875273 350.222429 
L 468.140545 346.47416 
L 475.405818 345.205248 
L 482.671091 341.894103 
L 489.936364 340.213821 
L 497.201636 340.037022 
L 504.466909 334.733762 
L 511.732182 332.699186 
L 518.997455 334.078076 
L 526.262727 331.685031 
L 533.528 329.635838 
L 540.793273 326.778523 
L 548.058545 325.488032 
L 555.323818 322.475496 
L 562.589091 323.167377 
L 569.854364 318.238595 
L 577.119636 318.13001 
L 584.384909 314.472229 
L 591.650182 312.215611 
L 598.915455 311.802849 
L 606.180727 309.691708 
L 613.446 307.380101 
L 620.711273 306.43764 
L 627.976545 304.035546 
L 635.241818 304.537403 
L 642.507091 299.447136 
L 649.772364 298.18588 
L 657.037636 297.035297 
L 664.302909 293.062898 
L 671.568182 291.54967 
L 678.833455 291.166838 
L 686.098727 287.773559 
L 693.364 287.194439 
L 700.629273 286.505342 
L 707.894545 283.066819 
L 715.159818 281.37888 
L 722.425091 279.367274 
L 729.690364 276.844067 
L 736.955636 273.548235 
L 744.220909 270.407625 
L 751.486182 272.093476 
L 758.751455 266.396246 
L 766.016727 262.977909 
L 773.282 256.137058 
L 780.547273 262.735681 
L 787.812545 260.644029 
L 795.077818 257.359334 
L 802.343091 254.582066 
L 809.608364 253.215705 
L 816.873636 252.219647 
" clip-path="url(#p3d071b4d0b)" style="fill: none; stroke: #d62728; stroke-width: 1.5; stroke-linecap: square"/>
   </g>
   <g id="line2d_29">
    <path d="M 90.346364 442.259304 
L 97.611636 440.67995 
L 104.876909 438.884122 
L 112.142182 437.047923 
L 119.407455 435.518685 
L 126.672727 433.663692 
L 133.938 432.079466 
L 141.203273 430.340018 
L 148.468545 428.409851 
L 155.733818 426.7595 
L 162.999091 425.153695 
L 170.264364 423.328633 
L 177.529636 421.129788 
L 184.794909 419.232336 
L 192.060182 417.062029 
L 199.325455 415.546712 
L 206.590727 414.22838 
L 213.856 412.16457 
L 221.121273 409.672685 
L 228.386545 408.325118 
L 235.651818 406.366412 
L 242.917091 404.258751 
L 250.182364 402.700278 
L 257.447636 400.019066 
L 264.712909 397.837622 
L 271.978182 396.221377 
L 279.243455 392.649907 
L 286.508727 392.44109 
L 293.774 389.042242 
L 301.039273 388.282843 
L 308.304545 384.000003 
L 315.569818 382.900928 
L 322.835091 382.231321 
L 330.100364 378.468435 
L 337.365636 376.66147 
L 344.630909 373.668424 
L 351.896182 373.775617 
L 359.161455 371.919928 
L 366.426727 369.773983 
L 373.692 369.652869 
L 380.957273 365.361676 
L 388.222545 363.07652 
L 395.487818 361.664915 
L 402.753091 359.700642 
L 410.018364 357.15516 
L 417.283636 355.765134 
L 424.548909 355.540307 
L 431.814182 351.454451 
L 439.079455 351.88879 
L 446.344727 349.697602 
L 453.61 345.13077 
L 460.875273 344.088772 
L 468.140545 341.743755 
L 475.405818 341.5593 
L 482.671091 337.275763 
L 489.936364 331.822154 
L 497.201636 330.339552 
L 504.466909 327.221215 
L 511.732182 325.969704 
L 518.997455 322.714244 
L 526.262727 322.926541 
L 533.528 320.420735 
L 540.793273 321.081293 
L 548.058545 318.737668 
L 555.323818 315.488473 
L 562.589091 315.709819 
L 569.854364 312.907492 
L 577.119636 309.842752 
L 584.384909 306.581723 
L 591.650182 304.965478 
L 598.915455 304.781023 
L 606.180727 299.083794 
L 613.446 300.707 
L 620.711273 296.162441 
L 627.976545 293.850139 
L 635.241818 294.993761 
L 642.507091 292.423918 
L 649.772364 291.317186 
L 657.037636 287.990033 
L 664.302909 288.702099 
L 671.568182 285.332486 
L 678.833455 279.259386 
L 686.098727 282.23155 
L 693.364 281.226444 
L 700.629273 278.684442 
L 707.894545 276.275388 
L 715.159818 274.247773 
L 722.425091 269.537553 
L 729.690364 269.060058 
L 736.955636 267.352629 
L 744.220909 260.688576 
L 751.486182 263.141482 
L 758.751455 258.44588 
L 766.016727 253.51501 
L 773.282 255.372091 
L 780.547273 253.560949 
L 787.812545 251.953057 
L 795.077818 249.235649 
L 802.343091 241.164169 
L 809.608364 240.882961 
L 816.873636 242.790158 
" clip-path="url(#p3d071b4d0b)" style="fill: none; stroke: #9467bd; stroke-width: 1.5; stroke-linecap: square"/>
   </g>
   <g id="line2d_30">
    <path d="M 90.346364 442.26 
L 97.611636 440.690391 
L 104.876909 439.002452 
L 112.142182 437.292239 
L 119.407455 435.686435 
L 126.672727 433.451395 
L 133.938 431.310322 
L 141.203273 429.976677 
L 148.468545 427.690128 
L 155.733818 426.029335 
L 162.999091 424.227939 
L 170.264364 422.503805 
L 177.529636 420.572942 
L 184.794909 418.486858 
L 192.060182 416.251122 
L 199.325455 413.730003 
L 206.590727 412.470835 
L 213.856 410.629763 
L 221.121273 408.647392 
L 228.386545 407.27964 
L 235.651818 404.953416 
L 242.917091 402.88543 
L 250.182364 401.318605 
L 257.447636 399.185189 
L 264.712909 397.124163 
L 271.978182 395.233672 
L 279.243455 391.76313 
L 286.508727 390.306978 
L 293.774 388.156857 
L 301.039273 387.687714 
L 308.304545 385.516015 
L 315.569818 382.661484 
L 322.835091 380.231548 
L 330.100364 378.09674 
L 337.365636 376.253581 
L 344.630909 375.336873 
L 351.896182 371.928977 
L 359.161455 370.636398 
L 366.426727 368.589294 
L 373.692 367.580706 
L 380.957273 359.797394 
L 388.222545 359.119434 
L 395.487818 358.932194 
L 402.753091 357.472562 
L 410.018364 355.37743 
L 417.283636 353.572553 
L 424.548909 350.69366 
L 431.814182 350.587163 
L 439.079455 347.919175 
L 446.344727 346.436573 
L 453.61 345.465573 
L 460.875273 341.337953 
L 468.140545 340.886212 
L 475.405818 337.19154 
L 482.671091 334.706615 
L 489.936364 334.119839 
L 497.201636 331.808929 
L 504.466909 329.716581 
L 511.732182 325.623763 
L 518.997455 326.304508 
L 526.262727 323.95601 
L 533.528 320.738833 
L 540.793273 318.789177 
L 548.058545 312.377097 
L 555.323818 310.521408 
L 562.589091 310.933474 
L 569.854364 311.007256 
L 577.119636 310.913984 
L 584.384909 306.355505 
L 591.650182 303.141808 
L 598.915455 302.548071 
L 606.180727 299.91071 
L 613.446 293.797935 
L 620.711273 289.474027 
L 627.976545 290.293286 
L 635.241818 290.579366 
L 642.507091 288.395138 
L 649.772364 288.961032 
L 657.037636 274.716916 
L 664.302909 277.599289 
L 671.568182 276.726433 
L 678.833455 282.098603 
L 686.098727 279.016462 
L 693.364 276.6617 
L 700.629273 273.288606 
L 707.894545 270.489063 
L 715.159818 269.217367 
L 722.425091 267.14938 
L 729.690364 263.093454 
L 736.955636 264.969329 
L 744.220909 256.453764 
L 751.486182 260.413634 
L 758.751455 254.750511 
L 766.016727 253.294359 
L 773.282 252.963036 
L 780.547273 250.304097 
L 787.812545 249.138201 
L 795.077818 246.507105 
L 802.343091 236.433067 
L 809.608364 237.730518 
L 816.873636 237.078312 
" clip-path="url(#p3d071b4d0b)" style="fill: none; stroke: #8c564b; stroke-width: 1.5; stroke-linecap: square"/>
   </g>
   <g id="line2d_31">
    <path d="M 90.346364 442.258608 
L 97.611636 440.571365 
L 104.876909 438.724725 
L 112.142182 437.241427 
L 119.407455 435.217292 
L 126.672727 433.004526 
L 133.938 431.392457 
L 141.203273 429.33352 
L 148.468545 427.555093 
L 155.733818 425.565761 
L 162.999091 423.748356 
L 170.264364 421.500787 
L 177.529636 419.590109 
L 184.794909 417.021658 
L 192.060182 415.443696 
L 199.325455 413.239978 
L 206.590727 411.344614 
L 213.856 409.333009 
L 221.121273 407.393097 
L 228.386545 404.826734 
L 235.651818 402.291693 
L 242.917091 401.30538 
L 250.182364 398.977068 
L 257.447636 396.808849 
L 264.712909 393.999562 
L 271.978182 392.887262 
L 279.243455 389.995144 
L 286.508727 388.317646 
L 293.774 385.79583 
L 301.039273 384.071696 
L 308.304545 381.948722 
L 315.569818 378.964724 
L 322.835091 376.66147 
L 330.100364 375.221328 
L 337.365636 372.281182 
L 344.630909 370.168648 
L 351.896182 368.798111 
L 359.161455 366.192768 
L 366.426727 364.236151 
L 373.692 361.9677 
L 380.957273 359.514098 
L 388.222545 357.917343 
L 395.487818 355.543091 
L 402.753091 353.038677 
L 410.018364 351.47046 
L 417.283636 348.212912 
L 424.548909 345.59852 
L 431.814182 343.97253 
L 439.079455 342.088303 
L 446.344727 341.042129 
L 453.61 338.626114 
L 460.875273 336.952096 
L 468.140545 333.57761 
L 475.405818 332.141644 
L 482.671091 328.123305 
L 489.936364 322.52074 
L 497.201636 326.083161 
L 504.466909 326.060887 
L 511.732182 323.748585 
L 518.997455 321.417489 
L 526.262727 319.866673 
L 533.528 315.564343 
L 540.793273 315.101465 
L 548.058545 311.991481 
L 555.323818 308.621171 
L 562.589091 307.490774 
L 569.854364 305.175688 
L 577.119636 304.916058 
L 584.384909 291.74735 
L 591.650182 295.751072 
L 598.915455 293.054546 
L 606.180727 289.121126 
L 613.446 288.168223 
L 620.711273 285.865666 
L 627.976545 283.840835 
L 635.241818 280.978647 
L 642.507091 280.498368 
L 649.772364 277.992561 
L 657.037636 274.830373 
L 664.302909 272.167258 
L 671.568182 272.220158 
L 678.833455 268.100891 
L 686.098727 268.578386 
L 693.364 262.542177 
L 700.629273 261.785563 
L 707.894545 258.587179 
L 715.159818 255.97766 
L 722.425091 255.583692 
L 729.690364 252.465355 
L 736.955636 251.776258 
L 744.220909 248.019637 
L 751.486182 245.629376 
L 758.751455 242.44561 
L 766.016727 237.927502 
L 773.282 239.092702 
L 780.547273 230.29593 
L 787.812545 225.264827 
L 795.077818 227.213092 
L 802.343091 221.693357 
L 809.608364 221.499157 
L 816.873636 214.146704 
" clip-path="url(#p3d071b4d0b)" style="fill: none; stroke: #e377c2; stroke-width: 1.5; stroke-linecap: square"/>
   </g>
   <g id="line2d_32">
    <path d="M 90.346364 442.258608 
L 97.611636 441.489465 
L 104.876909 440.590158 
L 112.142182 440.081341 
L 119.407455 439.177162 
L 126.672727 438.362775 
L 133.938 437.764862 
L 141.203273 436.996415 
L 148.468545 436.253721 
L 155.733818 435.408708 
L 162.999091 434.529587 
L 170.264364 433.98179 
L 177.529636 433.05673 
L 184.794909 432.37529 
L 192.060182 431.478072 
L 199.325455 430.841876 
L 206.590727 430.035145 
L 213.856 429.348137 
L 221.121273 428.594307 
L 228.386545 427.663678 
L 235.651818 426.81588 
L 242.917091 426.014022 
L 250.182364 425.462049 
L 257.447636 424.207057 
L 264.712909 423.715641 
L 271.978182 422.662506 
L 279.243455 421.516796 
L 286.508727 421.30241 
L 293.774 420.253452 
L 301.039273 419.807279 
L 308.304545 418.961569 
L 315.569818 417.686392 
L 322.835091 417.112841 
L 330.100364 416.128616 
L 337.365636 414.891722 
L 344.630909 414.638357 
L 351.896182 413.519793 
L 359.161455 412.310742 
L 366.426727 411.659928 
L 373.692 411.010507 
L 380.957273 410.784288 
L 388.222545 410.230226 
L 395.487818 409.058066 
L 402.753091 408.302844 
L 410.018364 407.258758 
L 417.283636 406.204927 
L 424.548909 405.56525 
L 431.814182 404.667336 
L 439.079455 404.077776 
L 446.344727 403.497264 
L 453.61 401.656889 
L 460.875273 400.614891 
L 468.140545 399.19215 
L 475.405818 399.318136 
L 482.671091 398.649921 
L 489.936364 397.288433 
L 497.201636 395.971492 
L 504.466909 395.571955 
L 511.732182 396.508849 
L 518.997455 395.438312 
L 526.262727 394.99562 
L 533.528 390.955703 
L 540.793273 392.384709 
L 548.058545 392.093061 
L 555.323818 390.981457 
L 562.589091 390.437141 
L 569.854364 389.741779 
L 577.119636 388.272402 
L 584.384909 387.666136 
L 591.650182 387.398154 
L 598.915455 385.781909 
L 606.180727 385.991423 
L 613.446 383.864967 
L 620.711273 382.751972 
L 627.976545 382.29675 
L 635.241818 380.548254 
L 642.507091 381.645241 
L 649.772364 380.148717 
L 657.037636 378.902775 
L 664.302909 377.981195 
L 671.568182 377.705556 
L 678.833455 377.450103 
L 686.098727 375.791399 
L 693.364 373.858447 
L 700.629273 373.751255 
L 707.894545 373.160302 
L 715.159818 372.293015 
L 722.425091 370.903684 
L 729.690364 370.68721 
L 736.955636 371.210645 
L 744.220909 369.171894 
L 751.486182 368.388133 
L 758.751455 367.836856 
L 766.016727 365.949844 
L 773.282 365.032441 
L 780.547273 364.811094 
L 787.812545 364.809702 
L 795.077818 363.143341 
L 802.343091 362.399952 
L 809.608364 361.203429 
L 816.873636 360.719669 
" clip-path="url(#p3d071b4d0b)" style="fill: none; stroke: #7f7f7f; stroke-width: 1.5; stroke-linecap: square"/>
   </g>
   <g id="line2d_33">
    <path d="M 90.346364 442.258608 
L 97.611636 441.829837 
L 104.876909 441.365566 
L 112.142182 440.856748 
L 119.407455 440.261619 
L 126.672727 439.700597 
L 133.938 438.911268 
L 141.203273 438.043981 
L 148.468545 437.817762 
L 155.733818 436.932377 
L 162.999091 436.431216 
L 170.264364 436.264162 
L 177.529636 434.940957 
L 184.794909 434.769727 
L 192.060182 434.837941 
L 199.325455 434.032603 
L 206.590727 433.746523 
L 213.856 433.303134 
L 221.121273 432.824247 
L 228.386545 432.092691 
L 235.651818 431.60197 
L 242.917091 430.830043 
L 250.182364 430.522385 
L 257.447636 429.879228 
L 264.712909 429.524935 
L 271.978182 428.934679 
L 279.243455 428.103586 
L 286.508727 427.574583 
L 293.774 426.59175 
L 301.039273 426.2827 
L 308.304545 426.219359 
L 315.569818 425.286642 
L 322.835091 425.267849 
L 330.100364 424.742325 
L 337.365636 423.828402 
L 344.630909 422.850442 
L 351.896182 423.018192 
L 359.161455 421.729789 
L 366.426727 421.477817 
L 373.692 420.757397 
L 380.957273 420.752525 
L 388.222545 420.445564 
L 395.487818 419.825377 
L 402.753091 418.408204 
L 410.018364 418.674794 
L 417.283636 417.907739 
L 424.548909 417.158781 
L 431.814182 416.647179 
L 439.079455 416.63117 
L 446.344727 415.427686 
L 453.61 411.759464 
L 460.875273 412.969212 
L 468.140545 414.697522 
L 475.405818 413.849725 
L 482.671091 412.27037 
L 489.936364 409.939275 
L 497.201636 411.186609 
L 504.466909 410.603313 
L 511.732182 410.384055 
L 518.997455 409.220247 
L 526.262727 408.980108 
L 533.528 409.565492 
L 540.793273 408.524886 
L 548.058545 406.594719 
L 555.323818 404.862929 
L 562.589091 403.378238 
L 569.854364 403.42905 
L 577.119636 402.975221 
L 584.384909 399.886815 
L 591.650182 401.134149 
L 598.915455 404.305387 
L 606.180727 404.63323 
L 613.446 399.95642 
L 620.711273 401.182873 
L 627.976545 401.517677 
L 635.241818 401.141806 
L 642.507091 400.332987 
L 649.772364 398.498876 
L 657.037636 396.636227 
L 664.302909 397.674745 
L 671.568182 398.209317 
L 678.833455 399.476837 
L 686.098727 397.876601 
L 693.364 393.089815 
L 700.629273 393.840165 
L 707.894545 393.579143 
L 715.159818 391.312085 
L 722.425091 395.157801 
L 729.690364 395.148057 
L 736.955636 394.270328 
L 744.220909 394.000954 
L 751.486182 392.225312 
L 758.751455 393.025778 
L 766.016727 392.094453 
L 773.282 392.283085 
L 780.547273 390.368231 
L 787.812545 388.873796 
L 795.077818 388.99143 
L 802.343091 388.196532 
L 809.608364 387.802564 
L 816.873636 389.301871 
" clip-path="url(#p3d071b4d0b)" style="fill: none; stroke: #bcbd22; stroke-width: 1.5; stroke-linecap: square"/>
   </g>
   <g id="line2d_34">
    <path d="M 90.346364 442.257912 
L 97.611636 439.397812 
L 104.876909 436.415207 
L 112.142182 432.932136 
L 119.407455 429.605678 
L 126.672727 426.027247 
L 133.938 423.314712 
L 141.203273 419.357626 
L 148.468545 416.217712 
L 155.733818 412.978957 
L 162.999091 409.73533 
L 170.264364 406.157595 
L 177.529636 402.369651 
L 184.794909 398.592844 
L 192.060182 393.143411 
L 199.325455 388.113701 
L 206.590727 386.778663 
L 213.856 382.770765 
L 221.121273 377.857993 
L 228.386545 375.645923 
L 235.651818 371.159833 
L 242.917091 368.133376 
L 250.182364 364.791605 
L 257.447636 361.115726 
L 264.712909 357.322214 
L 271.978182 354.480908 
L 279.243455 351.05561 
L 286.508727 345.346548 
L 293.774 341.864869 
L 301.039273 338.924027 
L 308.304545 334.619608 
L 315.569818 331.103823 
L 322.835091 326.953929 
L 330.100364 323.05392 
L 337.365636 320.220271 
L 344.630909 314.916314 
L 351.896182 311.982432 
L 359.161455 308.220938 
L 366.426727 303.733457 
L 373.692 299.051079 
L 380.957273 296.753394 
L 388.222545 290.540387 
L 395.487818 287.544556 
L 402.753091 284.686544 
L 410.018364 279.898366 
L 417.283636 273.612273 
L 424.548909 271.260295 
L 431.814182 268.666785 
L 439.079455 264.328956 
L 446.344727 258.767458 
L 453.61 255.025454 
L 460.875273 251.638439 
L 468.140545 247.173231 
L 475.405818 241.153032 
L 482.671091 235.373668 
L 489.936364 234.636543 
L 497.201636 231.788277 
L 504.466909 225.074804 
L 511.732182 221.252753 
L 518.997455 217.636735 
L 526.262727 218.388477 
L 533.528 210.294723 
L 540.793273 209.401681 
L 548.058545 203.370344 
L 555.323818 195.463133 
L 562.589091 195.042019 
L 569.854364 191.029944 
L 577.119636 186.490258 
L 584.384909 178.977016 
L 591.650182 174.123408 
L 598.915455 172.599043 
L 606.180727 168.210401 
L 613.446 168.236155 
L 620.711273 161.091127 
L 627.976545 154.719418 
L 635.241818 152.292266 
L 642.507091 151.648413 
L 649.772364 144.723339 
L 657.037636 142.065792 
L 664.302909 138.016827 
L 671.568182 135.445591 
L 678.833455 126.015407 
L 686.098727 125.258792 
L 693.364 117.985689 
L 700.629273 114.176168 
L 707.894545 112.424887 
L 715.159818 104.733454 
L 722.425091 89.096526 
L 729.690364 86.875408 
L 736.955636 78.200445 
L 744.220909 79.143603 
L 751.486182 81.911127 
L 758.751455 83.851039 
L 766.016727 77.016452 
L 773.282 72.689759 
L 780.547273 65.136841 
L 787.812545 62.032426 
L 795.077818 59.035899 
L 802.343091 57.677195 
L 809.608364 48.916618 
L 816.873636 46.66 
" clip-path="url(#p3d071b4d0b)" style="fill: none; stroke: #17becf; stroke-width: 1.5; stroke-linecap: square"/>
   </g>
   <g id="patch_3">
    <path d="M 54.02 462.04 
L 54.02 26.88 
" style="fill: none; stroke: #000000; stroke-width: 0.8; stroke-linejoin: miter; stroke-linecap: square"/>
   </g>
   <g id="patch_4">
    <path d="M 853.2 462.04 
L 853.2 26.88 
" style="fill: none; stroke: #000000; stroke-width: 0.8; stroke-linejoin: miter; stroke-linecap: square"/>
   </g>
   <g id="patch_5">
    <path d="M 54.02 462.04 
L 853.2 462.04 
" style="fill: none; stroke: #000000; stroke-width: 0.8; stroke-linejoin: miter; stroke-linecap: square"/>
   </g>
   <g id="patch_6">
    <path d="M 54.02 26.88 
L 853.2 26.88 
" style="fill: none; stroke: #000000; stroke-width: 0.8; stroke-linejoin: miter; stroke-linecap: square"/>
   </g>
   <g id="text_16">
    <!-- Best algorithms by points vs qsort on big_tests -->
    <g transform="translate(312.597813 20.88) scale(0.12 -0.12)">
     <defs>
      <path id="DejaVuSans-42" d="M 1259 2228 
L 1259 519 
L 2272 519 
Q 2781 519 3026 730 
Q 3272 941 3272 1375 
Q 3272 1813 3026 2020 
Q 2781 2228 2272 2228 
L 1259 2228 
z
M 1259 4147 
L 1259 2741 
L 2194 2741 
Q 2656 2741 2882 2914 
Q 3109 3088 3109 3444 
Q 3109 3797 2882 3972 
Q 2656 4147 2194 4147 
L 1259 4147 
z
M 628 4666 
L 2241 4666 
Q 2963 4666 3353 4366 
Q 3744 4066 3744 3513 
Q 3744 3084 3544 2831 
Q 3344 2578 2956 2516 
Q 3422 2416 3680 2098 
Q 3938 1781 3938 1306 
Q 3938 681 3513 340 
Q 3088 0 2303 0 
L 628 0 
L 628 4666 
z
" transform="scale(0.015625)"/>
      <path id="DejaVuSans-6c" d="M 603 4863 
L 1178 4863 
L 1178 0 
L 603 0 
L 603 4863 
z
" transform="scale(0.015625)"/>
      <path id="DejaVuSans-6f" d="M 1959 3097 
Q 1497 3097 1228 2736 
Q 959 2375 959 1747 
Q 959 1119 1226 758 
Q 1494 397 1959 397 
Q 2419 397 2687 759 
Q 2956 1122 2956 1747 
Q 2956 2369 2687 2733 
Q 2419 3097 1959 3097 
z
M 1959 3584 
Q 2709 3584 3137 3096 
Q 3566 2609 3566 1747 
Q 3566 888 3137 398 
Q 2709 -91 1959 -91 
Q 1206 -91 779 398 
Q 353 888 353 1747 
Q 353 2609 779 3096 
Q 1206 3584 1959 3584 
z
" transform="scale(0.015625)"/>
      <path id="DejaVuSans-68" d="M 3513 2113 
L 3513 0 
L 2938 0 
L 2938 2094 
Q 2938 2591 2744 2837 
Q 2550 3084 2163 3084 
Q 1697 3084 1428 2787 
Q 1159 2491 1159 1978 
L 1159 0 
L 581 0 
L 581 4863 
L 1159 4863 
L 1159 2956 
Q 1366 3272 1645 3428 
Q 1925 3584 2291 3584 
Q 2894 3584 3203 3211 
Q 3513 2838 3513 2113 
z
" transform="scale(0.015625)"/>
      <path id="DejaVuSans-62" d="M 3116 1747 
Q 3116 2381 2855 2742 
Q 2594 3103 2138 3103 
Q 1681 3103 1420 2742 
Q 1159 2381 1159 1747 
Q 1159 1113 1420 752 
Q 1681 391 2138 391 
Q 2594 391 2855 752 
Q 3116 1113 3116 1747 
z
M 1159 2969 
Q 1341 3281 1617 3432 
Q 1894 3584 2278 3584 
Q 2916 3584 3314 3078 
Q 3713 2572 3713 1747 
Q 3713 922 3314 415 
Q 2916 -91 2278 -91 
Q 1894 -91 1617 61 
Q 1341 213 1159 525 
L 1159 0 
L 581 0 
L 581 4863 
L 1159 4863 
L 1159 2969 
z
" transform="scale(0.015625)"/>
      <path id="DejaVuSans-70" d="M 1159 525 
L 1159 -1331 
L 581 -1331 
L 581 3500 
L 1159 3500 
L 1159 2969 
Q 1341 3281 1617 3432 
Q 1894 3584 2278 3584 
Q 2916 3584 3314 3078 
Q 3713 2572 3713 1747 
Q 3713 922 3314 415 
Q 2916 -91 2278 -91 
Q 1894 -91 1617 61 
Q 1341 213 1159 525 
z
M 3116 1747 
Q 3116 2381 2855 2742 
Q 2594 3103 2138 3103 
Q 1681 3103 1420 2742 
Q 1159 2381 1159 1747 
Q 1159 1113 1420 752 
Q 1681 391 2138 391 
Q 2594 391 2855 752 
Q 3116 1113 3116 1747 
z
" transform="scale(0.015625)"/>
      <path id="DejaVuSans-6e" d="M 3513 2113 
L 3513 0 
L 2938 0 
L 2938 2094 
Q 2938 2591 2744 2837 
Q 2550 3084 2163 3084 
Q 1697 3084 1428 2787 
Q 1159 2491 1159 1978 
L 1159 0 
L 581 0 
L 581 3500 
L 1159 3500 
L 1159 2956 
Q 1366 3272 1645 3428 
Q 1925 3584 2291 3584 
Q 2894 3584 3203 3211 
Q 3513 2838 3513 2113 
z
" transform="scale(0.015625)"/>
      <path id="DejaVuSans-71" d="M 947 1747 
Q 947 1113 1208 752 
Q 1469 391 1925 391 
Q 2381 391 2643 752 
Q 2906 1113 2906 1747 
Q 2906 2381 2643 2742 
Q 2381 3103 1925 3103 
Q 1469 3103 1208 2742 
Q 947 2381 947 1747 
z
M 2906 525 
Q 2725 213 2448 61 
Q 2172 -91 1784 -91 
Q 1150 -91 751 415 
Q 353 922 353 1747 
Q 353 2572 751 3078 
Q 1150 3584 1784 3584 
Q 2172 3584 2448 3432 
Q 2725 3281 2906 2969 
L 2906 3500 
L 3481 3500 
L 3481 -1331 
L 2906 -1331 
L 2906 525 
z
" transform="scale(0.015625)"/>
      <path id="DejaVuSans-5f" d="M 3263 -1063 
L 3263 -1509 
L -63 -1509 
L -63 -1063 
L 3263 -1063 
z
" transform="scale(0.015625)"/>
     </defs>
     <use xlink:href="#DejaVuSans-42"/>
     <use xlink:href="#DejaVuSans-65" transform="translate(68.603516 0)"/>
     <use xlink:href="#DejaVuSans-73" transform="translate(130.126953 0)"/>
     <use xlink:href="#DejaVuSans-74" transform="translate(182.226562 0)"/>
     <use xlink:href="#DejaVuSans-20" transform="translate(221.435547 0)"/>
     <use xlink:href="#DejaVuSans-61" transform="translate(253.222656 0)"/>
     <use xlink:href="#DejaVuSans-6c" transform="translate(314.501953 0)"/>
     <use xlink:href="#DejaVuSans-67" transform="translate(342.285156 0)"/>
     <use xlink:href="#DejaVuSans-6f" transform="translate(405.761719 0)"/>
     <use xlink:href="#DejaVuSans-72" transform="translate(466.943359 0)"/>
     <use xlink:href="#DejaVuSans-69" transform="translate(508.056641 0)"/>
     <use xlink:href="#DejaVuSans-74" transform="translate(535.839844 0)"/>
     <use xlink:href="#DejaVuSans-68" transform="translate(575.048828 0)"/>
     <use xlink:href="#DejaVuSans-6d" transform="translate(638.427734 0)"/>
     <use xlink:href="#DejaVuSans-73" transform="translate(735.839844 0)"/>
     <use xlink:href="#DejaVuSans-20" transform="translate(787.939453 0)"/>
     <use xlink:href="#DejaVuSans-62" transform="translate(819.726562 0)"/>
     <use xlink:href="#DejaVuSans-79" transform="translate(883.203125 0)"/>
     <use xlink:href="#DejaVuSans-20" transform="translate(942.382812 0)"/>
     <use xlink:href="#DejaVuSans-70" transform="translate(974.169922 0)"/>
     <use xlink:href="#DejaVuSans-6f" transform="translate(1037.646484 0)"/>
     <use xlink:href="#DejaVuSans-69" transform="translate(1098.828125 0)"/>
     <use xlink:href="#DejaVuSans-6e" transform="translate(1126.611328 0)"/>
     <use xlink:href="#DejaVuSans-74" transform="translate(1189.990234 0)"/>
     <use xlink:href="#DejaVuSans-73" transform="translate(1229.199219 0)"/>
     <use xlink:href="#DejaVuSans-20" transform="translate(1281.298828 0)"/>
     <use xlink:href="#DejaVuSans-76" transform="translate(1313.085938 0)"/>
     <use xlink:href="#DejaVuSans-73" transform="translate(1372.265625 0)"/>
     <use xlink:href="#DejaVuSans-20" transform="translate(1424.365234 0)"/>
     <use xlink:href="#DejaVuSans-71" transform="translate(1456.152344 0)"/>
     <use xlink:href="#DejaVuSans-73" transform="translate(1519.628906 0)"/>
     <use xlink:href="#DejaVuSans-6f" transform="translate(1571.728516 0)"/>
     <use xlink:href="#DejaVuSans-72" transform="translate(1632.910156 0)"/>
     <use xlink:href="#DejaVuSans-74" transform="translate(1674.023438 0)"/>
     <use xlink:href="#DejaVuSans-20" transform="translate(1713.232422 0)"/>
     <use xlink:href="#DejaVuSans-6f" transform="translate(1745.019531 0)"/>
     <use xlink:href="#DejaVuSans-6e" transform="translate(1806.201172 0)"/>
     <use xlink:href="#DejaVuSans-20" transform="translate(1869.580078 0)"/>
     <use xlink:href="#DejaVuSans-62" transform="translate(1901.367188 0)"/>
     <use xlink:href="#DejaVuSans-69" transform="translate(1964.84375 0)"/>
     <use xlink:href="#DejaVuSans-67" transform="translate(1992.626953 0)"/>
     <use xlink:href="#DejaVuSans-5f" transform="translate(2056.103516 0)"/>
     <use xlink:href="#DejaVuSans-74" transform="translate(2106.103516 0)"/>
     <use xlink:href="#DejaVuSans-65" transform="translate(2145.3125 0)"/>
     <use xlink:href="#DejaVuSans-73" transform="translate(2206.835938 0)"/>
     <use xlink:href="#DejaVuSans-74" transform="translate(2258.935547 0)"/>
     <use xlink:href="#DejaVuSans-73" transform="translate(2298.144531 0)"/>
    </g>
   </g>
   <g id="legend_1">
    <g id="patch_7">
     <path d="M 61.02 181.66125 
L 294.729375 181.66125 
Q 296.729375 181.66125 296.729375 179.66125 
L 296.729375 33.88 
Q 296.729375 31.88 294.729375 31.88 
L 61.02 31.88 
Q 59.02 31.88 59.02 33.88 
L 59.02 179.66125 
Q 59.02 181.66125 61.02 181.66125 
z
" style="fill: #ffffff; opacity: 0.8; stroke: #cccccc; stroke-linejoin: miter"/>
    </g>
    <g id="line2d_35">
     <path d="M 63.02 39.978437 
L 73.02 39.978437 
L 83.02 39.978437 
" style="fill: none; stroke: #1f77b4; stroke-width: 1.5; stroke-linecap: square"/>
    </g>
    <g id="text_17">
     <!-- P1: Shell sort -->
     <g transform="translate(91.02 43.478437) scale(0.1 -0.1)">
      <defs>
       <path id="DejaVuSans-50" d="M 1259 4147 
L 1259 2394 
L 2053 2394 
Q 2494 2394 2734 2622 
Q 2975 2850 2975 3272 
Q 2975 3691 2734 3919 
Q 2494 4147 2053 4147 
L 1259 4147 
z
M 628 4666 
L 2053 4666 
Q 2838 4666 3239 4311 
Q 3641 3956 3641 3272 
Q 3641 2581 3239 2228 
Q 2838 1875 2053 1875 
L 1259 1875 
L 1259 0 
L 628 0 
L 628 4666 
z
" transform="scale(0.015625)"/>
       <path id="DejaVuSans-3a" d="M 750 794 
L 1409 794 
L 1409 0 
L 750 0 
L 750 794 
z
M 750 3309 
L 1409 3309 
L 1409 2516 
L 750 2516 
L 750 3309 
z
" transform="scale(0.015625)"/>
       <path id="DejaVuSans-53" d="M 3425 4513 
L 3425 3897 
Q 3066 4069 2747 4153 
Q 2428 4238 2131 4238 
Q 1616 4238 1336 4038 
Q 1056 3838 1056 3469 
Q 1056 3159 1242 3001 
Q 1428 2844 1947 2747 
L 2328 2669 
Q 3034 2534 3370 2195 
Q 3706 1856 3706 1288 
Q 3706 609 3251 259 
Q 2797 -91 1919 -91 
Q 1588 -91 1214 -16 
Q 841 59 441 206 
L 441 856 
Q 825 641 1194 531 
Q 1563 422 1919 422 
Q 2459 422 2753 634 
Q 3047 847 3047 1241 
Q 3047 1584 2836 1778 
Q 2625 1972 2144 2069 
L 1759 2144 
Q 1053 2284 737 2584 
Q 422 2884 422 3419 
Q 422 4038 858 4394 
Q 1294 4750 2059 4750 
Q 2388 4750 2728 4690 
Q 3069 4631 3425 4513 
z
" transform="scale(0.015625)"/>
      </defs>
      <use xlink:href="#DejaVuSans-50"/>
      <use xlink:href="#DejaVuSans-31" transform="translate(60.302734 0)"/>
      <use xlink:href="#DejaVuSans-3a" transform="translate(123.925781 0)"/>
      <use xlink:href="#DejaVuSans-20" transform="translate(157.617188 0)"/>
      <use xlink:href="#DejaVuSans-53" transform="translate(189.404297 0)"/>
      <use xlink:href="#DejaVuSans-68" transform="translate(252.880859 0)"/>
      <use xlink:href="#DejaVuSans-65" transform="translate(316.259766 0)"/>
      <use xlink:href="#DejaVuSans-6c" transform="translate(377.783203 0)"/>
      <use xlink:href="#DejaVuSans-6c" transform="translate(405.566406 0)"/>
      <use xlink:href="#DejaVuSans-20" transform="translate(433.349609 0)"/>
      <use xlink:href="#DejaVuSans-73" transform="translate(465.136719 0)"/>
      <use xlink:href="#DejaVuSans-6f" transform="translate(517.236328 0)"/>
      <use xlink:href="#DejaVuSans-72" transform="translate(578.417969 0)"/>
      <use xlink:href="#DejaVuSans-74" transform="translate(619.53125 0)"/>
     </g>
    </g>
    <g id="line2d_36">
     <path d="M 63.02 54.656562 
L 73.02 54.656562 
L 83.02 54.656562 
" style="fill: none; stroke: #ff7f0e; stroke-width: 1.5; stroke-linecap: square"/>
    </g>
    <g id="text_18">
     <!-- P2: 4-ary heap sort -->
     <g transform="translate(91.02 58.156562) scale(0.1 -0.1)">
      <defs>
       <path id="DejaVuSans-2d" d="M 313 2009 
L 1997 2009 
L 1997 1497 
L 313 1497 
L 313 2009 
z
" transform="scale(0.015625)"/>
      </defs>
      <use xlink:href="#DejaVuSans-50"/>
      <use xlink:href="#DejaVuSans-32" transform="translate(60.302734 0)"/>
      <use xlink:href="#DejaVuSans-3a" transform="translate(123.925781 0)"/>
      <use xlink:href="#DejaVuSans-20" transform="translate(157.617188 0)"/>
      <use xlink:href="#DejaVuSans-34" transform="translate(189.404297 0)"/>
      <use xlink:href="#DejaVuSans-2d" transform="translate(253.027344 0)"/>
      <use xlink:href="#DejaVuSans-61" transform="translate(289.111328 0)"/>
      <use xlink:href="#DejaVuSans-72" transform="translate(350.390625 0)"/>
      <use xlink:href="#DejaVuSans-79" transform="translate(391.503906 0)"/>
      <use xlink:href="#DejaVuSans-20" transform="translate(450.683594 0)"/>
      <use xlink:href="#DejaVuSans-68" transform="translate(482.470703 0)"/>
      <use xlink:href="#DejaVuSans-65" transform="translate(545.849609 0)"/>
      <use xlink:href="#DejaVuSans-61" transform="translate(607.373047 0)"/>
      <use xlink:href="#DejaVuSans-70" transform="translate(668.652344 0)"/>
      <use xlink:href="#DejaVuSans-20" transform="translate(732.128906 0)"/>
      <use xlink:href="#DejaVuSans-73" transform="translate(763.916016 0)"/>
      <use xlink:href="#DejaVuSans-6f" transform="translate(816.015625 0)"/>
      <use xlink:href="#DejaVuSans-72" transform="translate(877.197266 0)"/>
      <use xlink:href="#DejaVuSans-74" transform="translate(918.310547 0)"/>
     </g>
    </g>
    <g id="line2d_37">
     <path d="M 63.02 69.334687 
L 73.02 69.334687 
L 83.02 69.334687 
" style="fill: none; stroke: #2ca02c; stroke-width: 1.5; stroke-linecap: square"/>
    </g>
    <g id="text_19">
     <!-- P3: Iterative merge sort -->
     <g transform="translate(91.02 72.834687) scale(0.1 -0.1)">
      <defs>
       <path id="DejaVuSans-33" d="M 2597 2516 
Q 3050 2419 3304 2112 
Q 3559 1806 3559 1356 
Q 3559 666 3084 287 
Q 2609 -91 1734 -91 
Q 1441 -91 1130 -33 
Q 819 25 488 141 
L 488 750 
Q 750 597 1062 519 
Q 1375 441 1716 441 
Q 2309 441 2620 675 
Q 2931 909 2931 1356 
Q 2931 1769 2642 2001 
Q 2353 2234 1838 2234 
L 1294 2234 
L 1294 2753 
L 1863 2753 
Q 2328 2753 2575 2939 
Q 2822 3125 2822 3475 
Q 2822 3834 2567 4026 
Q 2313 4219 1838 4219 
Q 1578 4219 1281 4162 
Q 984 4106 628 3988 
L 628 4550 
Q 988 4650 1302 4700 
Q 1616 4750 1894 4750 
Q 2613 4750 3031 4423 
Q 3450 4097 3450 3541 
Q 3450 3153 3228 2886 
Q 3006 2619 2597 2516 
z
" transform="scale(0.015625)"/>
       <path id="DejaVuSans-49" d="M 628 4666 
L 1259 4666 
L 1259 0 
L 628 0 
L 628 4666 
z
" transform="scale(0.015625)"/>
      </defs>
      <use xlink:href="#DejaVuSans-50"/>
      <use xlink:href="#DejaVuSans-33" transform="translate(60.302734 0)"/>
      <use xlink:href="#DejaVuSans-3a" transform="translate(123.925781 0)"/>
      <use xlink:href="#DejaVuSans-20" transform="translate(157.617188 0)"/>
      <use xlink:href="#DejaVuSans-49" transform="translate(189.404297 0)"/>
      <use xlink:href="#DejaVuSans-74" transform="translate(218.896484 0)"/>
      <use xlink:href="#DejaVuSans-65" transform="translate(258.105469 0)"/>
      <use xlink:href="#DejaVuSans-72" transform="translate(319.628906 0)"/>
      <use xlink:href="#DejaVuSans-61" transform="translate(360.742188 0)"/>
      <use xlink:href="#DejaVuSans-74" transform="translate(422.021484 0)"/>
      <use xlink:href="#DejaVuSans-69" transform="translate(461.230469 0)"/>
      <use xlink:href="#DejaVuSans-76" transform="translate(489.013672 0)"/>
      <use xlink:href="#DejaVuSans-65" transform="translate(548.193359 0)"/>
      <use xlink:href="#DejaVuSans-20" transform="translate(609.716797 0)"/>
      <use xlink:href="#DejaVuSans-6d" transform="translate(641.503906 0)"/>
      <use xlink:href="#DejaVuSans-65" transform="translate(738.916016 0)"/>
      <use xlink:href="#DejaVuSans-72" transform="translate(800.439453 0)"/>
      <use xlink:href="#DejaVuSans-67" transform="translate(839.802734 0)"/>
      <use xlink:href="#DejaVuSans-65" transform="translate(903.279297 0)"/>
      <use xlink:href="#DejaVuSans-20" transform="translate(964.802734 0)"/>
      <use xlink:href="#DejaVuSans-73" transform="translate(996.589844 0)"/>
      <use xlink:href="#DejaVuSans-6f" transform="translate(1048.689453 0)"/>
      <use xlink:href="#DejaVuSans-72" transform="translate(1109.871094 0)"/>
      <use xlink:href="#DejaVuSans-74" transform="translate(1150.984375 0)"/>
     </g>
    </g>
    <g id="line2d_38">
     <path d="M 63.02 84.012812 
L 73.02 84.012812 
L 83.02 84.012812 
" style="fill: none; stroke: #d62728; stroke-width: 1.5; stroke-linecap: square"/>
    </g>
    <g id="text_20">
     <!-- P4: Fat quick sort + 1 branch + cutoff40 -->
     <g transform="translate(91.02 87.512812) scale(0.1 -0.1)">
      <defs>
       <path id="DejaVuSans-46" d="M 628 4666 
L 3309 4666 
L 3309 4134 
L 1259 4134 
L 1259 2759 
L 3109 2759 
L 3109 2228 
L 1259 2228 
L 1259 0 
L 628 0 
L 628 4666 
z
" transform="scale(0.015625)"/>
       <path id="DejaVuSans-75" d="M 544 1381 
L 544 3500 
L 1119 3500 
L 1119 1403 
Q 1119 906 1312 657 
Q 1506 409 1894 409 
Q 2359 409 2629 706 
Q 2900 1003 2900 1516 
L 2900 3500 
L 3475 3500 
L 3475 0 
L 2900 0 
L 2900 538 
Q 2691 219 2414 64 
Q 2138 -91 1772 -91 
Q 1169 -91 856 284 
Q 544 659 544 1381 
z
M 1991 3584 
L 1991 3584 
z
" transform="scale(0.015625)"/>
       <path id="DejaVuSans-6b" d="M 581 4863 
L 1159 4863 
L 1159 1991 
L 2875 3500 
L 3609 3500 
L 1753 1863 
L 3688 0 
L 2938 0 
L 1159 1709 
L 1159 0 
L 581 0 
L 581 4863 
z
" transform="scale(0.015625)"/>
       <path id="DejaVuSans-2b" d="M 2944 4013 
L 2944 2272 
L 4684 2272 
L 4684 1741 
L 2944 1741 
L 2944 0 
L 2419 0 
L 2419 1741 
L 678 1741 
L 678 2272 
L 2419 2272 
L 2419 4013 
L 2944 4013 
z
" transform="scale(0.015625)"/>
       <path id="DejaVuSans-66" d="M 2375 4863 
L 2375 4384 
L 1825 4384 
Q 1516 4384 1395 4259 
Q 1275 4134 1275 3809 
L 1275 3500 
L 2222 3500 
L 2222 3053 
L 1275 3053 
L 1275 0 
L 697 0 
L 697 3053 
L 147 3053 
L 147 3500 
L 697 3500 
L 697 3744 
Q 697 4328 969 4595 
Q 1241 4863 1831 4863 
L 2375 4863 
z
" transform="scale(0.015625)"/>
      </defs>
      <use xlink:href="#DejaVuSans-50"/>
      <use xlink:href="#DejaVuSans-34" transform="translate(60.302734 0)"/>
      <use xlink:href="#DejaVuSans-3a" transform="translate(123.925781 0)"/>
      <use xlink:href="#DejaVuSans-20" transform="translate(157.617188 0)"/>
      <use xlink:href="#DejaVuSans-46" transform="translate(189.404297 0)"/>
      <use xlink:href="#DejaVuSans-61" transform="translate(237.798828 0)"/>
      <use xlink:href="#DejaVuSans-74" transform="translate(299.078125 0)"/>
      <use xlink:href="#DejaVuSans-20" transform="translate(338.287109 0)"/>
      <use xlink:href="#DejaVuSans-71" transform="translate(370.074219 0)"/>
      <use xlink:href="#DejaVuSans-75" transform="translate(433.550781 0)"/>
      <use xlink:href="#DejaVuSans-69" transform="translate(496.929688 0)"/>
      <use xlink:href="#DejaVuSans-63" transform="translate(524.712891 0)"/>
      <use xlink:href="#DejaVuSans-6b" transform="translate(579.693359 0)"/>
      <use xlink:href="#DejaVuSans-20" transform="translate(637.603516 0)"/>
      <use xlink:href="#DejaVuSans-73" transform="translate(669.390625 0)"/>
      <use xlink:href="#DejaVuSans-6f" transform="translate(721.490234 0)"/>
      <use xlink:href="#DejaVuSans-72" transform="translate(782.671875 0)"/>
      <use xlink:href="#DejaVuSans-74" transform="translate(823.785156 0)"/>
      <use xlink:href="#DejaVuSans-20" transform="translate(862.994141 0)"/>
      <use xlink:href="#DejaVuSans-2b" transform="translate(894.78125 0)"/>
      <use xlink:href="#DejaVuSans-20" transform="translate(978.570312 0)"/>
      <use xlink:href="#DejaVuSans-31" transform="translate(1010.357422 0)"/>
      <use xlink:href="#DejaVuSans-20" transform="translate(1073.980469 0)"/>
      <use xlink:href="#DejaVuSans-62" transform="translate(1105.767578 0)"/>
      <use xlink:href="#DejaVuSans-72" transform="translate(1169.244141 0)"/>
      <use xlink:href="#DejaVuSans-61" transform="translate(1210.357422 0)"/>
      <use xlink:href="#DejaVuSans-6e" transform="translate(1271.636719 0)"/>
      <use xlink:href="#DejaVuSans-63" transform="translate(1335.015625 0)"/>
      <use xlink:href="#DejaVuSans-68" transform="translate(1389.996094 0)"/>
      <use xlink:href="#DejaVuSans-20" transform="translate(1453.375 0)"/>
      <use xlink:href="#DejaVuSans-2b" transform="translate(1485.162109 0)"/>
      <use xlink:href="#DejaVuSans-20" transform="translate(1568.951172 0)"/>
      <use xlink:href="#DejaVuSans-63" transform="translate(1600.738281 0)"/>
      <use xlink:href="#DejaVuSans-75" transform="translate(1655.71875 0)"/>
      <use xlink:href="#DejaVuSans-74" transform="translate(1719.097656 0)"/>
      <use xlink:href="#DejaVuSans-6f" transform="translate(1758.306641 0)"/>
      <use xlink:href="#DejaVuSans-66" transform="translate(1819.488281 0)"/>
      <use xlink:href="#DejaVuSans-66" transform="translate(1854.693359 0)"/>
      <use xlink:href="#DejaVuSans-34" transform="translate(1889.898438 0)"/>
      <use xlink:href="#DejaVuSans-30" transform="translate(1953.521484 0)"/>
     </g>
    </g>
    <g id="line2d_39">
     <path d="M 63.02 98.690937 
L 73.02 98.690937 
L 83.02 98.690937 
" style="fill: none; stroke: #9467bd; stroke-width: 1.5; stroke-linecap: square"/>
    </g>
    <g id="text_21">
     <!-- P5: Pivot median of 3 -->
     <g transform="translate(91.02 102.190937) scale(0.1 -0.1)">
      <defs>
       <path id="DejaVuSans-35" d="M 691 4666 
L 3169 4666 
L 3169 4134 
L 1269 4134 
L 1269 2991 
Q 1406 3038 1543 3061 
Q 1681 3084 1819 3084 
Q 2600 3084 3056 2656 
Q 3513 2228 3513 1497 
Q 3513 744 3044 326 
Q 2575 -91 1722 -91 
Q 1428 -91 1123 -41 
Q 819 9 494 109 
L 494 744 
Q 775 591 1075 516 
Q 1375 441 1709 441 
Q 2250 441 2565 725 
Q 2881 1009 2881 1497 
Q 2881 1984 2565 2268 
Q 2250 2553 1709 2553 
Q 1456 2553 1204 2497 
Q 953 2441 691 2322 
L 691 4666 
z
" transform="scale(0.015625)"/>
       <path id="DejaVuSans-64" d="M 2906 2969 
L 2906 4863 
L 3481 4863 
L 3481 0 
L 2906 0 
L 2906 525 
Q 2725 213 2448 61 
Q 2172 -91 1784 -91 
Q 1150 -91 751 415 
Q 353 922 353 1747 
Q 353 2572 751 3078 
Q 1150 3584 1784 3584 
Q 2172 3584 2448 3432 
Q 2725 3281 2906 2969 
z
M 947 1747 
Q 947 1113 1208 752 
Q 1469 391 1925 391 
Q 2381 391 2643 752 
Q 2906 1113 2906 1747 
Q 2906 2381 2643 2742 
Q 2381 3103 1925 3103 
Q 1469 3103 1208 2742 
Q 947 2381 947 1747 
z
" transform="scale(0.015625)"/>
      </defs>
      <use xlink:href="#DejaVuSans-50"/>
      <use xlink:href="#DejaVuSans-35" transform="translate(60.302734 0)"/>
      <use xlink:href="#DejaVuSans-3a" transform="translate(123.925781 0)"/>
      <use xlink:href="#DejaVuSans-20" transform="translate(157.617188 0)"/>
      <use xlink:href="#DejaVuSans-50" transform="translate(189.404297 0)"/>
      <use xlink:href="#DejaVuSans-69" transform="translate(247.457031 0)"/>
      <use xlink:href="#DejaVuSans-76" transform="translate(275.240234 0)"/>
      <use xlink:href="#DejaVuSans-6f" transform="translate(334.419922 0)"/>
      <use xlink:href="#DejaVuSans-74" transform="translate(395.601562 0)"/>
      <use xlink:href="#DejaVuSans-20" transform="translate(434.810547 0)"/>
      <use xlink:href="#DejaVuSans-6d" transform="translate(466.597656 0)"/>
      <use xlink:href="#DejaVuSans-65" transform="translate(564.009766 0)"/>
      <use xlink:href="#DejaVuSans-64" transform="translate(625.533203 0)"/>
      <use xlink:href="#DejaVuSans-69" transform="translate(689.009766 0)"/>
      <use xlink:href="#DejaVuSans-61" transform="translate(716.792969 0)"/>
      <use xlink:href="#DejaVuSans-6e" transform="translate(778.072266 0)"/>
      <use xlink:href="#DejaVuSans-20" transform="translate(841.451172 0)"/>
      <use xlink:href="#DejaVuSans-6f" transform="translate(873.238281 0)"/>
      <use xlink:href="#DejaVuSans-66" transform="translate(934.419922 0)"/>
      <use xlink:href="#DejaVuSans-20" transform="translate(969.625 0)"/>
      <use xlink:href="#DejaVuSans-33" transform="translate(1001.412109 0)"/>
     </g>
    </g>
    <g id="line2d_40">
     <path d="M 63.02 113.369062 
L 73.02 113.369062 
L 83.02 113.369062 
" style="fill: none; stroke: #8c564b; stroke-width: 1.5; stroke-linecap: square"/>
    </g>
    <g id="text_22">
     <!-- P6: Quick + Shell cutoff32 -->
     <g transform="translate(91.02 116.869062) scale(0.1 -0.1)">
      <defs>
       <path id="DejaVuSans-51" d="M 2522 4238 
Q 1834 4238 1429 3725 
Q 1025 3213 1025 2328 
Q 1025 1447 1429 934 
Q 1834 422 2522 422 
Q 3209 422 3611 934 
Q 4013 1447 4013 2328 
Q 4013 3213 3611 3725 
Q 3209 4238 2522 4238 
z
M 3406 84 
L 4238 -825 
L 3475 -825 
L 2784 -78 
Q 2681 -84 2626 -87 
Q 2572 -91 2522 -91 
Q 1538 -91 948 567 
Q 359 1225 359 2328 
Q 359 3434 948 4092 
Q 1538 4750 2522 4750 
Q 3503 4750 4090 4092 
Q 4678 3434 4678 2328 
Q 4678 1516 4351 937 
Q 4025 359 3406 84 
z
" transform="scale(0.015625)"/>
      </defs>
      <use xlink:href="#DejaVuSans-50"/>
      <use xlink:href="#DejaVuSans-36" transform="translate(60.302734 0)"/>
      <use xlink:href="#DejaVuSans-3a" transform="translate(123.925781 0)"/>
      <use xlink:href="#DejaVuSans-20" transform="translate(157.617188 0)"/>
      <use xlink:href="#DejaVuSans-51" transform="translate(189.404297 0)"/>
      <use xlink:href="#DejaVuSans-75" transform="translate(268.115234 0)"/>
      <use xlink:href="#DejaVuSans-69" transform="translate(331.494141 0)"/>
      <use xlink:href="#DejaVuSans-63" transform="translate(359.277344 0)"/>
      <use xlink:href="#DejaVuSans-6b" transform="translate(414.257812 0)"/>
      <use xlink:href="#DejaVuSans-20" transform="translate(472.167969 0)"/>
      <use xlink:href="#DejaVuSans-2b" transform="translate(503.955078 0)"/>
      <use xlink:href="#DejaVuSans-20" transform="translate(587.744141 0)"/>
      <use xlink:href="#DejaVuSans-53" transform="translate(619.53125 0)"/>
      <use xlink:href="#DejaVuSans-68" transform="translate(683.007812 0)"/>
      <use xlink:href="#DejaVuSans-65" transform="translate(746.386719 0)"/>
      <use xlink:href="#DejaVuSans-6c" transform="translate(807.910156 0)"/>
      <use xlink:href="#DejaVuSans-6c" transform="translate(835.693359 0)"/>
      <use xlink:href="#DejaVuSans-20" transform="translate(863.476562 0)"/>
      <use xlink:href="#DejaVuSans-63" transform="translate(895.263672 0)"/>
      <use xlink:href="#DejaVuSans-75" transform="translate(950.244141 0)"/>
      <use xlink:href="#DejaVuSans-74" transform="translate(1013.623047 0)"/>
      <use xlink:href="#DejaVuSans-6f" transform="translate(1052.832031 0)"/>
      <use xlink:href="#DejaVuSans-66" transform="translate(1114.013672 0)"/>
      <use xlink:href="#DejaVuSans-66" transform="translate(1149.21875 0)"/>
      <use xlink:href="#DejaVuSans-33" transform="translate(1184.423828 0)"/>
      <use xlink:href="#DejaVuSans-32" transform="translate(1248.046875 0)"/>
     </g>
    </g>
    <g id="line2d_41">
     <path d="M 63.02 128.047187 
L 73.02 128.047187 
L 83.02 128.047187 
" style="fill: none; stroke: #e377c2; stroke-width: 1.5; stroke-linecap: square"/>
    </g>
    <g id="text_23">
     <!-- P7: Introsort C=2 -->
     <g transform="translate(91.02 131.547187) scale(0.1 -0.1)">
      <defs>
       <path id="DejaVuSans-37" d="M 525 4666 
L 3525 4666 
L 3525 4397 
L 1831 0 
L 1172 0 
L 2766 4134 
L 525 4134 
L 525 4666 
z
" transform="scale(0.015625)"/>
       <path id="DejaVuSans-43" d="M 4122 4306 
L 4122 3641 
Q 3803 3938 3442 4084 
Q 3081 4231 2675 4231 
Q 1875 4231 1450 3742 
Q 1025 3253 1025 2328 
Q 1025 1406 1450 917 
Q 1875 428 2675 428 
Q 3081 428 3442 575 
Q 3803 722 4122 1019 
L 4122 359 
Q 3791 134 3420 21 
Q 3050 -91 2638 -91 
Q 1578 -91 968 557 
Q 359 1206 359 2328 
Q 359 3453 968 4101 
Q 1578 4750 2638 4750 
Q 3056 4750 3426 4639 
Q 3797 4528 4122 4306 
z
" transform="scale(0.015625)"/>
       <path id="DejaVuSans-3d" d="M 678 2906 
L 4684 2906 
L 4684 2381 
L 678 2381 
L 678 2906 
z
M 678 1631 
L 4684 1631 
L 4684 1100 
L 678 1100 
L 678 1631 
z
" transform="scale(0.015625)"/>
      </defs>
      <use xlink:href="#DejaVuSans-50"/>
      <use xlink:href="#DejaVuSans-37" transform="translate(60.302734 0)"/>
      <use xlink:href="#DejaVuSans-3a" transform="translate(123.925781 0)"/>
      <use xlink:href="#DejaVuSans-20" transform="translate(157.617188 0)"/>
      <use xlink:href="#DejaVuSans-49" transform="translate(189.404297 0)"/>
      <use xlink:href="#DejaVuSans-6e" transform="translate(218.896484 0)"/>
      <use xlink:href="#DejaVuSans-74" transform="translate(282.275391 0)"/>
      <use xlink:href="#DejaVuSans-72" transform="translate(321.484375 0)"/>
      <use xlink:href="#DejaVuSans-6f" transform="translate(360.347656 0)"/>
      <use xlink:href="#DejaVuSans-73" transform="translate(421.529297 0)"/>
      <use xlink:href="#DejaVuSans-6f" transform="translate(473.628906 0)"/>
      <use xlink:href="#DejaVuSans-72" transform="translate(534.810547 0)"/>
      <use xlink:href="#DejaVuSans-74" transform="translate(575.923828 0)"/>
      <use xlink:href="#DejaVuSans-20" transform="translate(615.132812 0)"/>
      <use xlink:href="#DejaVuSans-43" transform="translate(646.919922 0)"/>
      <use xlink:href="#DejaVuSans-3d" transform="translate(716.744141 0)"/>
      <use xlink:href="#DejaVuSans-32" transform="translate(800.533203 0)"/>
     </g>
    </g>
    <g id="line2d_42">
     <path d="M 63.02 142.725312 
L 73.02 142.725312 
L 83.02 142.725312 
" style="fill: none; stroke: #7f7f7f; stroke-width: 1.5; stroke-linecap: square"/>
    </g>
    <g id="text_24">
     <!-- P8: PDQSort -->
     <g transform="translate(91.02 146.225312) scale(0.1 -0.1)">
      <defs>
       <path id="DejaVuSans-44" d="M 1259 4147 
L 1259 519 
L 2022 519 
Q 2988 519 3436 956 
Q 3884 1394 3884 2338 
Q 3884 3275 3436 3711 
Q 2988 4147 2022 4147 
L 1259 4147 
z
M 628 4666 
L 1925 4666 
Q 3281 4666 3915 4102 
Q 4550 3538 4550 2338 
Q 4550 1131 3912 565 
Q 3275 0 1925 0 
L 628 0 
L 628 4666 
z
" transform="scale(0.015625)"/>
      </defs>
      <use xlink:href="#DejaVuSans-50"/>
      <use xlink:href="#DejaVuSans-38" transform="translate(60.302734 0)"/>
      <use xlink:href="#DejaVuSans-3a" transform="translate(123.925781 0)"/>
      <use xlink:href="#DejaVuSans-20" transform="translate(157.617188 0)"/>
      <use xlink:href="#DejaVuSans-50" transform="translate(189.404297 0)"/>
      <use xlink:href="#DejaVuSans-44" transform="translate(249.707031 0)"/>
      <use xlink:href="#DejaVuSans-51" transform="translate(326.708984 0)"/>
      <use xlink:href="#DejaVuSans-53" transform="translate(405.419922 0)"/>
      <use xlink:href="#DejaVuSans-6f" transform="translate(468.896484 0)"/>
      <use xlink:href="#DejaVuSans-72" transform="translate(530.078125 0)"/>
      <use xlink:href="#DejaVuSans-74" transform="translate(571.191406 0)"/>
     </g>
    </g>
    <g id="line2d_43">
     <path d="M 63.02 157.403437 
L 73.02 157.403437 
L 83.02 157.403437 
" style="fill: none; stroke: #bcbd22; stroke-width: 1.5; stroke-linecap: square"/>
    </g>
    <g id="text_25">
     <!-- P9: LSD radix sort -->
     <g transform="translate(91.02 160.903437) scale(0.1 -0.1)">
      <defs>
       <path id="DejaVuSans-39" d="M 703 97 
L 703 672 
Q 941 559 1184 500 
Q 1428 441 1663 441 
Q 2288 441 2617 861 
Q 2947 1281 2994 2138 
Q 2813 1869 2534 1725 
Q 2256 1581 1919 1581 
Q 1219 1581 811 2004 
Q 403 2428 403 3163 
Q 403 3881 828 4315 
Q 1253 4750 1959 4750 
Q 2769 4750 3195 4129 
Q 3622 3509 3622 2328 
Q 3622 1225 3098 567 
Q 2575 -91 1691 -91 
Q 1453 -91 1209 -44 
Q 966 3 703 97 
z
M 1959 2075 
Q 2384 2075 2632 2365 
Q 2881 2656 2881 3163 
Q 2881 3666 2632 3958 
Q 2384 4250 1959 4250 
Q 1534 4250 1286 3958 
Q 1038 3666 1038 3163 
Q 1038 2656 1286 2365 
Q 1534 2075 1959 2075 
z
" transform="scale(0.015625)"/>
       <path id="DejaVuSans-4c" d="M 628 4666 
L 1259 4666 
L 1259 531 
L 3531 531 
L 3531 0 
L 628 0 
L 628 4666 
z
" transform="scale(0.015625)"/>
       <path id="DejaVuSans-78" d="M 3513 3500 
L 2247 1797 
L 3578 0 
L 2900 0 
L 1881 1375 
L 863 0 
L 184 0 
L 1544 1831 
L 300 3500 
L 978 3500 
L 1906 2253 
L 2834 3500 
L 3513 3500 
z
" transform="scale(0.015625)"/>
      </defs>
      <use xlink:href="#DejaVuSans-50"/>
      <use xlink:href="#DejaVuSans-39" transform="translate(60.302734 0)"/>
      <use xlink:href="#DejaVuSans-3a" transform="translate(123.925781 0)"/>
      <use xlink:href="#DejaVuSans-20" transform="translate(157.617188 0)"/>
      <use xlink:href="#DejaVuSans-4c" transform="translate(189.404297 0)"/>
      <use xlink:href="#DejaVuSans-53" transform="translate(245.117188 0)"/>
      <use xlink:href="#DejaVuSans-44" transform="translate(308.59375 0)"/>
      <use xlink:href="#DejaVuSans-20" transform="translate(385.595703 0)"/>
      <use xlink:href="#DejaVuSans-72" transform="translate(417.382812 0)"/>
      <use xlink:href="#DejaVuSans-61" transform="translate(458.496094 0)"/>
      <use xlink:href="#DejaVuSans-64" transform="translate(519.775391 0)"/>
      <use xlink:href="#DejaVuSans-69" transform="translate(583.251953 0)"/>
      <use xlink:href="#DejaVuSans-78" transform="translate(611.035156 0)"/>
      <use xlink:href="#DejaVuSans-20" transform="translate(670.214844 0)"/>
      <use xlink:href="#DejaVuSans-73" transform="translate(702.001953 0)"/>
      <use xlink:href="#DejaVuSans-6f" transform="translate(754.101562 0)"/>
      <use xlink:href="#DejaVuSans-72" transform="translate(815.283203 0)"/>
      <use xlink:href="#DejaVuSans-74" transform="translate(856.396484 0)"/>
     </g>
    </g>
    <g id="line2d_44">
     <path d="M 63.02 172.081562 
L 73.02 172.081562 
L 83.02 172.081562 
" style="fill: none; stroke: #17becf; stroke-width: 1.5; stroke-linecap: square"/>
    </g>
    <g id="text_26">
     <!-- libc qsort -->
     <g transform="translate(91.02 175.581562) scale(0.1 -0.1)">
      <use xlink:href="#DejaVuSans-6c"/>
      <use xlink:href="#DejaVuSans-69" transform="translate(27.783203 0)"/>
      <use xlink:href="#DejaVuSans-62" transform="translate(55.566406 0)"/>
      <use xlink:href="#DejaVuSans-63" transform="translate(119.042969 0)"/>
      <use xlink:href="#DejaVuSans-20" transform="translate(174.023438 0)"/>
      <use xlink:href="#DejaVuSans-71" transform="translate(205.810547 0)"/>
      <use xlink:href="#DejaVuSans-73" transform="translate(269.287109 0)"/>
      <use xlink:href="#DejaVuSans-6f" transform="translate(321.386719 0)"/>
      <use xlink:href="#DejaVuSans-72" transform="translate(382.568359 0)"/>
      <use xlink:href="#DejaVuSans-74" transform="translate(423.681641 0)"/>
     </g>
    </g>
   </g>
  </g>
 </g>
 <defs>
  <clipPath id="p3d071b4d0b">
   <rect x="54.02" y="26.88" width="799.18" height="435.16"/>
  </clipPath>
 </defs>
</svg>
